<svg xmlns="http://www.w3.org/2000/svg" width="38" height="37" fill="none"><path fill="#333" fill-rule="evenodd" d="M23.066 5.872c1.927 2.329 3.421 5.53 5.084 9.108l.032.07c1.94 4.176 4.087 8.798 7.383 12.516.19.214.253.55.145.87-.105.31-.303.44-.503.453-3.358.228-8.259.492-12.885.492-2.363 0-5.01-.069-7.577-.167-6.213-.238-10.923-5.363-9.893-11.264.326-1.865.755-3.773 1.32-5.592a1.12 1.12 0 0 0-.402-1.23c-1.04-.773-2.059-1.613-2.757-2.372-.352-.382-.579-.698-.696-.935a1 1 0 0 1-.06-.14c.046-.037.131-.095.28-.166.33-.156.813-.297 1.429-.412 1.224-.228 2.745-.312 4.074-.331a1.12 1.12 0 0 0 .907-.487c1.72-2.513 3.927-4.046 6.846-4.046 3.172 0 5.398 1.368 7.273 3.633m1.724-1.427C22.59 1.786 19.774 0 15.793 0c-3.659 0-6.38 1.875-8.355 4.545-1.246.035-2.661.13-3.882.358-.702.13-1.398.315-1.977.59-.547.259-1.198.697-1.465 1.45-.249.7-.047 1.38.196 1.871.252.508.637 1.004 1.056 1.458.68.739 1.562 1.493 2.442 2.177a49 49 0 0 0-1.161 5.116C1.346 25.021 7.324 31.17 14.659 31.451c2.583.099 5.26.169 7.663.169 4.7 0 9.657-.268 13.037-.497 1.285-.087 2.14-.991 2.471-1.97.328-.967.208-2.172-.59-3.072-3.06-3.452-5.086-7.794-7.06-12.044l-.042-.09c-1.612-3.472-3.218-6.928-5.348-9.502" clip-rule="evenodd"/><path fill="#333" fill-rule="evenodd" d="M18.242 12.65a1.12 1.12 0 0 0-1.12 1.12q0 .674.016 1.31c.136 5.843 4.866 10.124 10.6 10.268 2.073.052 4.717.003 6.62-.268a1.12 1.12 0 0 0-.317-2.216c-1.718.245-4.216.297-6.246.246-4.651-.117-8.314-3.54-8.42-8.082q-.014-.61-.014-1.258a1.12 1.12 0 0 0-1.12-1.12M13.345 8.161a1.12 1.12 0 0 0-1.12 1.12v.816a1.12 1.12 0 1 0 2.24 0V9.28a1.12 1.12 0 0 0-1.12-1.12M21.86 29.439a1.12 1.12 0 0 0-1.416.707l-1.632 4.897a1.12 1.12 0 1 0 2.124.708l1.632-4.897a1.12 1.12 0 0 0-.708-1.415M11.93 28.854a1.12 1.12 0 0 0-1.46.615l-2.243 5.506a1.12 1.12 0 0 0 2.074.845l2.243-5.507a1.12 1.12 0 0 0-.615-1.459" clip-rule="evenodd"/></svg>