<svg xmlns="http://www.w3.org/2000/svg" width="24" height="24" fill="none"><path fill="#333" d="M10.91 12A1.1 1.1 0 0 1 12 10.892 1.1 1.1 0 0 1 13.09 12 1.1 1.1 0 0 1 12 13.108 1.1 1.1 0 0 1 10.91 12m-2.183 0c0 1.836 1.466 3.324 3.273 3.324s3.273-1.488 3.273-3.324S13.807 8.676 12 8.676 8.727 10.164 8.727 12M21.818 12a1.1 1.1 0 0 0-1.063-1.108H20.7a1.1 1.1 0 0 1-1.063-1.108 1.1 1.1 0 0 1 1.091-1.108C22.535 8.676 24 10.164 24 12s-1.465 3.324-3.273 3.324a1.1 1.1 0 0 1-1.09-1.108 1.1 1.1 0 0 1 1.062-1.108h.056A1.1 1.1 0 0 0 21.818 12M0 12c0-1.836 1.465-3.324 3.273-3.324a1.1 1.1 0 0 1 1.09 1.108 1.1 1.1 0 0 1-1.062 1.108h-.056A1.1 1.1 0 0 0 2.182 12a1.1 1.1 0 0 0 1.063 1.108H3.3a1.1 1.1 0 0 1 1.063 1.108A1.1 1.1 0 0 1 3.3 15.323H3.23C1.442 15.3 0 13.821 0 12M17.708 17.608a1.08 1.08 0 0 1 1.475.381l.015.025.02.037c.875 1.584.335 3.593-1.218 4.503a3.246 3.246 0 0 1-4.47-1.216l1.889-1.108c.301.53.968.711 1.49.405.514-.3.695-.962.413-1.488l-.027-.05a1.117 1.117 0 0 1 .413-1.489m-3.78 2.216a1.08 1.08 0 0 1 1.49.406l-1.889 1.107a1.117 1.117 0 0 1 .4-1.513M6.692 4.878c.3.53.122 1.208-.4 1.514a1.08 1.08 0 0 1-1.49-.406zM6 1.446a3.246 3.246 0 0 1 4.47 1.216c.302.53.123 1.208-.399 1.514a1.08 1.08 0 0 1-1.475-.381l-.03-.05a1.08 1.08 0 0 0-1.475-.38c-.522.306-.7.983-.4 1.513L4.803 5.986C3.898 4.396 4.435 2.364 6 1.446"/><path fill="#333" d="M20.727 13.108a1.1 1.1 0 0 1 1.091 1.108 1.1 1.1 0 0 1-1.09 1.108c-.552 0-1.038.016-1.441.121-.38.1-.568.247-.674.432-.185.327-.168.463-.143.579.02.097.065.226.154.423.083.181.175.363.298.61l.054.109.012.026c.25.542.03 1.191-.5 1.46-.53.27-1.174.059-1.45-.47l-.014-.025-.044-.09c-.226-.453-.523-1.014-.642-1.574-.156-.727-.031-1.421.386-2.155.497-.874 1.293-1.281 2.019-1.47.703-.184 1.445-.192 1.984-.192M5.512 4.916a1.083 1.083 0 0 1 1.464.495c.23.468.559 1.067.686 1.664.156.727.031 1.421-.386 2.155-.497.874-1.293 1.281-2.019 1.47-.703.184-1.445.192-1.984.192a1.1 1.1 0 0 1-1.091-1.108 1.1 1.1 0 0 1 1.09-1.108c.552 0 1.038-.016 1.441-.121.381-.1.568-.247.674-.433.185-.326.168-.462.143-.578a2 2 0 0 0-.154-.423c-.094-.207-.202-.415-.352-.719a1.116 1.116 0 0 1 .488-1.486M13.53 2.662A3.246 3.246 0 0 1 18 1.446c1.565.918 2.102 2.95 1.198 4.54-.301.53-.969.712-1.49.406a1.117 1.117 0 0 1-.4-1.514 1.117 1.117 0 0 0-.399-1.513 1.08 1.08 0 0 0-1.49.405c-.301.53-.969.712-1.49.406a1.117 1.117 0 0 1-.4-1.514M4.802 18.014c.301-.53.968-.712 1.49-.406s.7.984.4 1.514a1.117 1.117 0 0 0 .399 1.513 1.08 1.08 0 0 0 1.49-.405c.301-.53.969-.712 1.49-.406.522.306.7.984.4 1.513A3.246 3.246 0 0 1 6 22.554c-1.565-.918-2.102-2.95-1.198-4.54"/><path fill="#333" d="M17.323 4.854c.307-.511.962-.682 1.476-.381.521.306.7.983.399 1.513l-.051.09c-.253.45-.461.856-.566 1.238-.105.384-.073.622.032.808.186.326.31.38.422.416.093.03.225.055.438.075.224.021.454.03.789.05.6.037 1.06.562 1.023 1.173a1.097 1.097 0 0 1-1.154 1.04c-.514-.032-1.19-.042-1.762-.228-.698-.227-1.228-.684-1.645-1.418-.497-.873-.446-1.778-.244-2.51.194-.71.558-1.367.828-1.842zM3.841 13.123l.028.001.098.006c.5.028 1.127.048 1.664.222.698.227 1.228.684 1.645 1.418.497.874.446 1.778.245 2.51-.195.71-.56 1.367-.83 1.842-.3.53-.968.711-1.49.405a1.117 1.117 0 0 1-.399-1.513c.276-.485.505-.92.617-1.328.105-.384.073-.622-.032-.808-.186-.326-.31-.38-.422-.415a2 2 0 0 0-.438-.076c-.196-.019-.397-.028-.668-.044l-.12-.007-.029-.002a1.103 1.103 0 0 1-.995-1.17 1.1 1.1 0 0 1 1.126-1.041M8.98 2.257a1.08 1.08 0 0 1 1.49.405c.276.485.533.905.825 1.207.275.285.494.376.705.376.37 0 .478-.084.565-.163.072-.067.16-.17.283-.348.13-.186.253-.385.438-.668a1.08 1.08 0 0 1 1.511-.314c.503.337.641 1.024.31 1.535l-.054.083c-.274.426-.604.967-1.022 1.352-.542.5-1.197.738-2.031.738-.993 0-1.739-.497-2.263-1.04-.508-.526-.886-1.175-1.156-1.65a1.117 1.117 0 0 1 .4-1.513M12 17.54c.993 0 1.74.497 2.264 1.04.476.493.837 1.094 1.103 1.559l.052.09.014.026c.281.526.1 1.187-.413 1.488a1.08 1.08 0 0 1-1.476-.38l-.015-.025-.051-.09c-.256-.447-.5-.834-.773-1.117-.275-.285-.494-.376-.705-.376-.37 0-.478.084-.565.163a2 2 0 0 0-.283.348c-.13.186-.253.385-.438.668a1.08 1.08 0 0 1-1.511.314 1.12 1.12 0 0 1-.31-1.535c.284-.436.63-1.025 1.076-1.435.542-.5 1.197-.738 2.031-.738"/></svg>