<svg xmlns="http://www.w3.org/2000/svg" width="382" height="332" fill="none"><path fill="#fff" d="M270.28 69.4a92.5 92.5 0 0 0-26.814 6.288 1 1 0 0 0-.088.048.586.586 0 0 1 .69.558 79.2 79.2 0 0 0 2.858 19.17c1.342 4.748 3.612 10.176 8.234 12.6a7.87 7.87 0 0 0 7 .622 7.86 7.86 0 0 0 4.702-5.222c2-5.062 1.938-10.848 2.028-16.2.098-5.786.654-11.506.944-17.28a.59.59 0 0 1 .494-.556zM342.322 92.784c-1.058 3.976-2.648 8.632-3.812 12.176-4.4 13.378-5.016 14.084-7.45 27.984a.58.58 0 0 1-.274.352.57.57 0 0 1-.444.048c-.174-.05-1.158-.772-9.16-4.654a585 585 0 0 1-20.978-10.762l-.058.1a8.01 8.01 0 0 1-12.742 2.6 264 264 0 0 0-4.874 33.12c-1.896 37.024 40.098 52.97 66.132 21.238a68.53 68.53 0 0 0-6.34-82.202m-21.382 90.74c-2.086-1.15-4.182-2.286-6.226-3.506a1.02 1.02 0 0 1-.213-1.533c.13-.147.3-.254.489-.307.252-.073.523-.047.756.074 2.086 1.15 4.18 2.286 6.226 3.506a1.022 1.022 0 0 1-.276 1.84 1.01 1.01 0 0 1-.756-.074"/><path fill="#fff" d="M280.72 150.452a276 276 0 0 1 5.038-31.932 7.73 7.73 0 0 1-.35-6.858c.6-1.366 4.2-7.174 4.342-7.708-4.078-3.2-8.776-8.324-7.2-13.234a8.33 8.33 0 0 1 8.45-5.836q1.013.074 2 .31-.074-.064-.144-.128A12.14 12.14 0 0 1 289 78.962a8.06 8.06 0 0 1 3.962-8.374c2.032-1.08 3.822-.76 2.436-.89a134 134 0 0 0-25-.32.6.6 0 0 0-.576.576c-.29 5.774-.846 11.494-.944 17.28-.09 5.354-.036 11.14-2.028 16.2a7.874 7.874 0 0 1-8.275 5.736 7.9 7.9 0 0 1-3.427-1.136c-4.622-2.416-6.892-7.844-8.234-12.6a79.2 79.2 0 0 1-2.858-19.17.59.59 0 0 0-.6-.568c-.05 0-.074 0-.128.012A74.35 74.35 0 0 0 201.2 119.21a271 271 0 0 0-8.122 30.446 32 32 0 0 1 4.8 3.336c1.474 1.23 4.228 3.552 3.212 5.772a.575.575 0 0 1-.786.2c-.514-.358-5.258-3.676-7.112-4.986l29.276 21.296a.55.55 0 0 1 .274.424.59.59 0 0 1-.158.478c-.2.2-28.414 27.11-28.694 27.38a27.206 27.206 0 0 0 24.876 2.754c9.758-3.614 17.39-12.094 22.046-21.49a68.43 68.43 0 0 0 49.227 21.82 68.436 68.436 0 0 0 49.773-20.542c-27.088 19.302-62.748 1.722-59.092-35.646m-55.8-4.356a1.021 1.021 0 0 1 1.258.714 89.9 89.9 0 0 0 13 33.628c.712 1.112-1.06 2.138-1.768 1.032a91.7 91.7 0 0 1-13.2-34.116 1.05 1.05 0 0 1 .704-1.258z"/><path fill="#fff" d="M343.8 76.278c-.916-4.094-3.954-6.906-7.094-9.45a55 55 0 0 0-7.42-5.076l-3.814 6.53c.378.946-.834 2-1.628 1.126a11.2 11.2 0 0 0-2-1.692A72.3 72.3 0 0 0 311.42 61.6a12.3 12.3 0 0 0-2.666-.99 10 10 0 0 0-1.144-.07c-.742 0-1.482.092-2.2.278a4.78 4.78 0 0 0-3.2 2.256 7.1 7.1 0 0 0-.624 4.448 10.1 10.1 0 0 0 4.232 5.216c.932.744-.282 2.2-1.238 1.6a15.7 15.7 0 0 0-8.36-2.538 5.77 5.77 0 0 0-4.45 2.754 5.77 5.77 0 0 0-.386 5.218c1.69 3.746 5.878 6.128 7.744 7.8.152.163.247.37.271.591s-.022.444-.135.636a1.03 1.03 0 0 1-1.136.483c-2.184-.748-4.546-2.376-7.916-2.372a6.16 6.16 0 0 0-5.524 3.912c-3.19 7.182 12.666 15.946 18.964 20.018a1.05 1.05 0 0 1 .438 1.106 1.04 1.04 0 0 1-.882.798c-.8 1.386-2.812 4.842-3 5.184a585 585 0 0 0 20.978 10.762c3.04 1.474 6.09 2.934 9.032 4.6a.6.6 0 0 0 .249.075.6.6 0 0 0 .47-.192.6.6 0 0 0 .127-.227 144 144 0 0 1 3.52-16.016c5.9-17.976 11.266-31.498 9.216-40.652m-33.058 25.368-4.94-4.324c-1-.87.458-2.31 1.446-1.446l4.94 4.324c.994.87-.458 2.31-1.446 1.446m11.532-15.586-5.514-3.4c-1.12-.692-.092-2.46 1.032-1.766l5.514 3.4c1.12.69.094 2.458-1.032 1.766"/><path fill="#AEFFD3" d="M369.948 248.03c-1.644-34.742-5.2-76.6-10.528-111a68.7 68.7 0 0 1-6.688 30.666 60 60 0 0 1-4.26 7.524c-25.936 31.256-67.844 15.658-65.942-21.486a263 263 0 0 1 4.874-33.12 8 8 0 0 1-1.646-2.102 276 276 0 0 0-5.038 31.932c-3.662 37.424 31.88 54.756 58.916 35.818a68.413 68.413 0 0 1-90.612 6.044c-9.6 47.6-12.296 55.634-12.786 67.756-.738 18.278 13.702 32.76 27.82 31.264 8.028-.852 14.948-5.98 19.738-12.22a59.7 59.7 0 0 0 8.874-17.128c4.954-14.478 8.842-28.254 11.012-37.55 2.814 9.478 13.858 39.836 18.4 48.374 4.02 7.556 11.962 13.504 21.11 13.342a27.81 27.81 0 0 0 24.2-16.926 50.74 50.74 0 0 0 2.556-21.188m-118.38 4.6a1.022 1.022 0 0 1-1.212-.69c-.9-2.93-1.76-5.872-2.638-8.8a1.03 1.03 0 0 1 .384-1.035 1.03 1.03 0 0 1 1.1-.093c.231.126.405.334.488.584.898 2.932 1.758 5.872 2.638 8.8a1 1 0 0 1-.122.778 1 1 0 0 1-.638.462zm74.786-2.576a1.044 1.044 0 0 1-1.4-.366l-4.3-5.846a1.025 1.025 0 0 1 .366-1.4 1.05 1.05 0 0 1 1.4.366l4.3 5.848a1.021 1.021 0 0 1-.366 1.404z"/><path fill="#E3F1FF" d="M62.544 252.276c-.106.2-5.638 10.312-5.754 10.516a4.32 4.32 0 0 1-2.71 2.088 4.31 4.31 0 0 1-3.38-.526 4.33 4.33 0 0 1-1.94-4.56 4.3 4.3 0 0 1 .692-1.602c1.048-1.928 5.174-9.564 5.41-10.014a83 83 0 0 1-10.654-7.42 136.4 136.4 0 0 0-19.266 3.854 44 44 0 0 0-10.306 4.12 9.74 9.74 0 0 0-4.836 5.006 5.4 5.4 0 0 0 1.746 5.316c2.277 1.97 4.9 3.5 7.736 4.512a118.8 118.8 0 0 0 29.858 6.314 262 262 0 0 0 38.14 1.24c0-.6.378-10.554.388-11.22a85.6 85.6 0 0 1-25.124-7.624M143.302 251.818l-8.102 7.726a3.22 3.22 0 0 1-5.365-1.48 3.23 3.23 0 0 1 .187-2.186c.068-.15 4.762-9.236 4.836-9.376q-1.2-.465-2.412-.876c-8.228 10.954-22.536 15.108-36.126 14.918-.05 1.532-.378 9.75-.4 10.138a174 174 0 0 0 29.952-4.314 69.4 69.4 0 0 0 11.664-3.966 15.2 15.2 0 0 0 6.2-4.736c.587-.885.863-1.94.785-2.998a4.8 4.8 0 0 0-1.219-2.85"/><path fill="#fff" d="M253.062 45.458a9.57 9.57 0 0 0-7.323-.142 9.57 9.57 0 1 0 7.323.142"/><path fill="#333" d="M254.474 40.736c-4.498-.896-7.4-5.082-9.258-9.268a5.57 5.57 0 0 0-1.63-2.414 2.39 2.39 0 0 0-2.674-.266c-.28.15-.526.356-.726.602a6.04 6.04 0 0 0-.742 3.818 27.9 27.9 0 0 0-4.074-5.6 2.775 2.775 0 0 0-3.728-.362 5.6 5.6 0 0 0-1.854 3.986c-.278 6.896 5.578 11.466 12.294 11.904a36.5 36.5 0 0 0 12.384-1.284.576.576 0 0 0 .31-.906.58.58 0 0 0-.302-.21M222.458 175.28c-1.2-.876-32.916-23.84-34.52-24.938a19 19 0 0 0 3.08 9.088 22 22 0 0 0 3.632 3.912c2.972 2.8 5.932 5.818 6.2 10.112a5.34 5.34 0 0 1-3.812 5.874c-.82.236-1.685.27-2.522.1a10.4 10.4 0 0 1-4.066-2.588q-2.492-2.182-4.986-4.358c1.17 2.4 2.354 4.814 3.346 7.284a7.992 7.992 0 0 1-.082 7.61c-2.562 3.552-7.574 2.8-10.918 0 2.638 4.124 3.034 9.516-1.26 10.986-2.982 1.022-5.956-1.062-8.236-2.77a44 44 0 0 1-4.936-4.328c-1.916 3.712-32.87 63.55-33.354 64.6a3.23 3.23 0 0 0 1.574 4.282 3.26 3.26 0 0 0 3.6-.616c.264-.25 87.178-83.172 87.368-83.362a.6.6 0 0 0 .13-.218q.04-.122.026-.252a.6.6 0 0 0-.264-.418"/><path fill="#fff" d="M197.868 153a32.3 32.3 0 0 0-4.8-3.336 26.54 26.54 0 0 0-25.658.116 26.53 26.53 0 0 0-13.562 21.78c-.334 6.77 2.872 12.342 7.39 17.424a47.8 47.8 0 0 0 7.08 6.618c2.28 1.708 5.254 3.8 8.236 2.77 4.262-1.46 3.928-6.814 1.26-10.986 3.346 2.8 8.358 3.542 10.918 0a7.99 7.99 0 0 0 .082-7.61c-1-2.47-2.176-4.88-3.346-7.284l4.986 4.358a10.4 10.4 0 0 0 4.066 2.588c3.65 1 6.562-2.372 6.334-5.974-.272-4.294-3.232-7.314-6.2-10.112a22 22 0 0 1-3.632-3.912 19.2 19.2 0 0 1-3.08-9.088c1.6 1.098 11.842 8.27 12.356 8.628a.57.57 0 0 0 .637-.033.6.6 0 0 0 .149-.167c1.012-2.236-1.742-4.558-3.216-5.78M168.9 177.362a195 195 0 0 1-3.374-5.824 1.024 1.024 0 0 1 1.766-1.032c1.162 1.92 2.28 3.866 3.374 5.824a1.024 1.024 0 0 1-1.766 1.032m9.544-18.054a1.05 1.05 0 0 1 1.258.714q1.2 2.901 2.414 5.8a1.03 1.03 0 0 1-.095.777q-.102.177-.262.303a1 1 0 0 1-.357.178 1.043 1.043 0 0 1-1.258-.714q-1.2-2.901-2.414-5.8a1.024 1.024 0 0 1 .714-1.258"/><path fill="#333" d="M289.124 316.932c-10.6-11.6-25.706-13.422-41.264-11.488-8.6 1.07-20.896 4.2-25.324 11.652a.576.576 0 0 0 .496.866c4.876.034 65.658 0 65.864-.092a.58.58 0 0 0 .35-.412.6.6 0 0 0-.122-.526M380.922 316.932c-10.6-11.6-25.704-13.422-41.264-11.488-8.6 1.07-20.894 4.2-25.324 11.652a.576.576 0 0 0 .496.866c4.876.034 65.658 0 65.864-.092a.6.6 0 0 0 .36-.41.59.59 0 0 0-.132-.528M24.17 171.222a9.575 9.575 0 0 0-9.53 16.6.578.578 0 0 0 .788-.2c2.66-4.52 8.576-14.958 8.95-15.614a.58.58 0 0 0-.208-.786"/><path fill="#E3F1FF" d="M368.974 27.62c-.31-.182-41.63-24.16-43.292-25.144a9.29 9.29 0 0 0-12.158 2.2c-.74.98.566-.216-12.484 21.326a18 18 0 0 0-1.37 2.6 9.206 9.206 0 0 0 4.238 11.422l43.266 25.126a9.25 9.25 0 0 0 12.752-3.578s11.698-20.166 12.256-21.104a9.225 9.225 0 0 0 1.108-7.1 9.26 9.26 0 0 0-4.316-5.748M319.76 6.172a1.046 1.046 0 0 1 1.4-.368 102 102 0 0 1 12.096 6.486c1.114.696.086 2.466-1.034 1.766a102 102 0 0 0-12.096-6.486 1.02 1.02 0 0 1-.366-1.398"/><path fill="#333" d="M71.044 150.138a4.47 4.47 0 0 0-4.591-.567 4.47 4.47 0 0 0-2.635 3.803c-.106 2.2-.324 8.352-.368 9.228 2.954.13 5.897.432 8.816.904l.338-9.084a4.99 4.99 0 0 0-1.56-4.284M138.514 186.328a4.469 4.469 0 0 0-4.824.754c-2.65 2.424-5.308 4.848-7.922 7.314a62 62 0 0 1 5.172 7.28c.854-.822-.702.622 8.122-7.55a4.47 4.47 0 0 0 2.03-4.06 4.46 4.46 0 0 0-.778-2.221 4.45 4.45 0 0 0-1.8-1.517M111.326 158.664a4.46 4.46 0 0 0-6.197-2.177 4.47 4.47 0 0 0-1.753 1.681c-1.102 1.956-2.144 3.944-3.216 5.916-2.35 4.322-3.438 5.732-3.56 7.346a73 73 0 0 1 7.074 3.902c1.044-.81.878-.86 7.13-12.362a4.95 4.95 0 0 0 .522-4.306M87.668 259.9c-.016 1.012-.388 11.22-.388 11.22a4.66 4.66 0 0 0 1.53 3.762 4.37 4.37 0 0 0 4.504.56 4.37 4.37 0 0 0 2.582-3.732s.38-9.634.43-11.166a69 69 0 0 1-8.658-.644M29.47 225.266c-.262.246.508-.47-7.12 6.6a4.33 4.33 0 0 0-1.96 2.912 4.36 4.36 0 0 0 7.218 4.004c2.448-2.24 4.87-4.508 7.308-6.762a71 71 0 0 1-5.446-6.754M54.862 248.172c-1.188 2.264 1.324-2.37-5.41 10.014a4.76 4.76 0 0 0-.426 4.2 4.37 4.37 0 0 0 3.756 2.568 4.389 4.389 0 0 0 4.008-2.154c1.098-1.948 4.952-8.952 5.754-10.516a97 97 0 0 1-7.682-4.112"/><path fill="#AEFFD3" d="M136.664 214.086C127.496 185.628 94 163.844 63.45 162.6c-16.112-.656-32.6 4.428-40.43 18.588a.58.58 0 0 1 .352-.265.57.57 0 0 1 .436.065c.2.108 110.142 59.724 110.848 60.128a.58.58 0 0 1 .2.786 35.31 35.31 0 0 0 1.808-27.816"/><path fill="#AEFFD3" d="M134.656 241.112c-.2-.112-110.896-60.2-111.12-60.2a.5.5 0 0 0-.516.274c-7.588 14.872-2.78 31.586 7.126 45.018a89.1 89.1 0 0 0 58.682 33.846c17.9 2.138 37.318-2.436 46.034-18.156a.58.58 0 0 0 .056-.433.58.58 0 0 0-.262-.349"/><path fill="#333" d="M66.916 114.128v-23.97a1.024 1.024 0 0 0-2.046 0v23.97a1.027 1.027 0 0 0 1.023.979 1.026 1.026 0 0 0 1.023-.979M48.552 115.492a1.027 1.027 0 0 0 1.419-.029 1.025 1.025 0 0 0 .027-1.419l-17.26-17.258a1.025 1.025 0 0 0-1.446 1.446zM82.278 115.492l15.564-18.538c.842-1-.6-2.456-1.446-1.446l-15.564 18.536c-.832 1.002.598 2.458 1.446 1.448M249.69 242.6a1.03 1.03 0 0 0-1.852-.208 1.03 1.03 0 0 0-.12.752c.878 2.936 1.738 5.878 2.638 8.8a1.03 1.03 0 0 0 1.852.208c.134-.226.177-.495.12-.752-.88-2.934-1.74-5.876-2.638-8.8M322.422 242.814a1.05 1.05 0 0 0-1.4-.366 1.025 1.025 0 0 0-.498 1.023q.03.201.132.377l4.3 5.846a1.05 1.05 0 0 0 1.4.366q.175-.103.3-.264c.161-.218.232-.489.198-.758a1 1 0 0 0-.13-.378z"/><path fill="#fff" d="M321.972 181.758c-2.046-1.22-4.14-2.356-6.226-3.506a1.022 1.022 0 1 0-1.032 1.766c2.044 1.22 4.14 2.356 6.226 3.506a1.024 1.024 0 0 0 1.032-1.766"/><path fill="#333" d="M310.742 101.646c.988.864 2.44-.576 1.446-1.446l-4.94-4.324c-.988-.864-2.44.576-1.446 1.446zM323.306 84.294l-5.514-3.4c-1.124-.694-2.152 1.074-1.032 1.766l5.514 3.4c1.126.692 2.152-1.076 1.032-1.766"/><path fill="#fff" d="M237.4 181.47c.71 1.106 2.48.08 1.768-1.032a90 90 0 0 1-13-33.628 1.02 1.02 0 0 0-1.87-.23 1.05 1.05 0 0 0-.102.774A91.8 91.8 0 0 0 237.4 181.47"/><path fill="#333" d="M168.9 177.362a1.024 1.024 0 0 0 1.872-.257 1.02 1.02 0 0 0-.106-.775 195 195 0 0 0-3.374-5.824 1.023 1.023 0 0 0-1.766 1.032 195 195 0 0 0 3.374 5.824M180.144 166.366a1.046 1.046 0 0 0 1.258.714 1.026 1.026 0 0 0 .714-1.258q-1.2-2.901-2.414-5.8a1.05 1.05 0 0 0-1.258-.714 1.026 1.026 0 0 0-.714 1.258z"/><path fill="#E3F1FF" d="M156.98 279.042c-158.43-1.116-155.512-.12-155.758.2-.224.236-.44-2.314-.144 39.8a.584.584 0 0 0 .576.576h11.442V291.2a1.98 1.98 0 0 1 1.342-1.342h5.114a1.025 1.025 0 0 1 1.022 1.022 1.023 1.023 0 0 1-1.022 1.022H15.14v27.73h27.358v-20.708h-1.534a1.02 1.02 0 0 1-.98-1.024 1.02 1.02 0 0 1 .98-1.022H43.2a1.7 1.7 0 0 1 1.342 1.024v21.72h4.028v-26.45H41.6a1.02 1.02 0 0 1-.98-1.024 1.02 1.02 0 0 1 .98-1.022h7.67a1.97 1.97 0 0 1 1.342 1.342v27.154h66.674v-26.45H89.864a1.02 1.02 0 0 1-.98-1.024 1.02 1.02 0 0 1 .98-1.022c19.584-.334 25.906-.314 28.022-.114 1.42.136 1.412.482 1.442 1.84.048 2.24 0 8.552 0 26.77H138.7v-20.698h-2.5a1.02 1.02 0 0 1-.98-1.024 1.02 1.02 0 0 1 .98-1.022h3.2a1.71 1.71 0 0 1 1.344 1.024v21.72h4.984v-27.41h-3.448a1.02 1.02 0 0 1-.98-1.024 1.02 1.02 0 0 1 .98-1.022h4.154a.98.98 0 0 1 .958 1.2.91.91 0 0 1 .384.776v27.474h9.2a.584.584 0 0 0 .576-.576v-39.422a.58.58 0 0 0-.572-.576M36.414 298.76l-15.4.028a.57.57 0 0 1-.498-.29.57.57 0 0 1 .002-.576 274 274 0 0 1 7.452-12.264.59.59 0 0 1 .694-.22.6.6 0 0 1 .218.138c.2.186.096.104 8.03 12.318a.576.576 0 0 1-.212.786.6.6 0 0 1-.286.08m45.29.762a7.81 7.81 0 0 1-8.744-2.97 7.804 7.804 0 0 1 4.802-12.209 7.8 7.8 0 0 1 8.1 3.443 7.8 7.8 0 0 1-4.158 11.736m56.558-7.492a499 499 0 0 1-6 6 .583.583 0 0 1-.814 0 499 499 0 0 1-6-6 .577.577 0 0 1 0-.812c1.984-2.016 4.01-4 6-6a.52.52 0 0 1 .366-.16h.094c.134.006.26.062.354.158 2 2 4.022 3.976 6 6a.58.58 0 0 1 0 .814"/><path fill="#AEFFD3" d="M36.91 297.894c-7.824-12.042-7.828-12.14-8.03-12.318a.6.6 0 0 0-.212-.134.62.62 0 0 0-.49.036.6.6 0 0 0-.192.162 273 273 0 0 0-7.47 12.282.58.58 0 0 0 .496.866s14.76-.022 15.4-.028a.58.58 0 0 0 .498-.866M82.278 284.85a7.81 7.81 0 0 0-8.917 2.25 7.81 7.81 0 0 0-.583 9.178 7.807 7.807 0 0 0 9.732 2.934 7.794 7.794 0 0 0-.232-14.362M138.262 291.218c-1.986-2.014-4.018-3.982-6-6a.53.53 0 0 0-.354-.158h-.094a.52.52 0 0 0-.366.16c-1.98 2.018-4 4-6 6a.577.577 0 0 0 0 .812 606 606 0 0 0 6 6 .584.584 0 0 0 .814 0 653 653 0 0 0 6-6 .574.574 0 0 0 0-.814"/><path fill="#333" d="M49.274 291.126H41.6a1.02 1.02 0 0 0-.98 1.022 1.02 1.02 0 0 0 .98 1.024h6.968V330.4a1.02 1.02 0 0 0 .63.946 1.022 1.022 0 0 0 1.414-.946v-37.932a1.62 1.62 0 0 0-1.338-1.342"/><path fill="#333" d="M43.44 296.926c-.2-.068-.124-.088-2.476-.048a1.02 1.02 0 0 0-.98 1.024 1.02 1.02 0 0 0 .98 1.022h1.534V330.4a1.019 1.019 0 0 0 1.73.694 1.02 1.02 0 0 0 .316-.694v-32.498a.97.97 0 0 0-1.104-.976M19.552 289.848h-5.114a1.97 1.97 0 0 0-1.342 1.342v39.2a1.016 1.016 0 0 0 1.022 1.022 1.03 1.03 0 0 0 .723-.299 1.01 1.01 0 0 0 .299-.723v-38.498h4.412a1.025 1.025 0 0 0 1.022-1.022 1.023 1.023 0 0 0-1.022-1.022M117.4 290.97c-2.53-.166-9.244-.156-27.538.156a1.02 1.02 0 0 0-.98 1.024 1.02 1.02 0 0 0 .98 1.022h27.424V330.4a1.02 1.02 0 0 0 1.73.694c.191-.182.304-.43.316-.694.454-26.222.128-34.482.162-37.416.02-1.842-.52-1.912-2.094-2.014M147.4 291.372a.982.982 0 0 0-.958-1.2h-4.162a1.02 1.02 0 0 0-.694 1.73c.182.191.43.304.694.316h3.45V330.4a1.019 1.019 0 0 0 1.732.694c.19-.182.303-.431.314-.694v-38.252a.92.92 0 0 0-.376-.776M139.64 296.926c-.218-.072-.104-.104-3.434-.048a1.02 1.02 0 0 0-.98 1.024 1.02 1.02 0 0 0 .98 1.022h2.494V330.4a1.02 1.02 0 0 0 1.73.694c.191-.182.304-.431.316-.694v-32.498a.968.968 0 0 0-1.106-.976M332.336 56.536l-13.846-8.042c-1.892 3.262-5.958 10.254-6.472 11.14a18 18 0 0 0-2.516-.952 8.92 8.92 0 0 0-8.716 2.812 8.1 8.1 0 0 0-.128 8.854 10.06 10.06 0 0 0-7.692.24A8.065 8.065 0 0 0 289 78.962a12.13 12.13 0 0 0 3.842 6.104q.07.064.144.128a12 12 0 0 0-2-.31 8.33 8.33 0 0 0-8.446 5.836c-1.484 4.62 2.3 9.258 7.246 13.272-.432.65-.934 1.734-3.132 5.362-.468.74-.888 1.512-1.256 2.308a8.01 8.01 0 0 0 8.025 11.046 8 8 0 0 0 4.885-2.166c1.116-1.098 1.314-1.632 4.896-7.8a1.049 1.049 0 0 0 .444-1.906c-9-5.81-24.966-14.706-17.4-22.288a5.9 5.9 0 0 1 3.956-1.64c3.418 0 5.6 1.578 7.916 2.372a1.028 1.028 0 0 0 1-1.71c-2.85-2.566-9.536-6.266-7.962-11.6a5.644 5.644 0 0 1 6.236-4.2c2.554.322 5.006 1.2 7.186 2.57.956.588 2.17-.862 1.238-1.6-2.772-2.212-5-4.158-4.214-7.87a7.4 7.4 0 0 1 .6-1.8 6.4 6.4 0 0 1 6.488-2.476 53.2 53.2 0 0 1 15.142 8.812c.8.878 1.982-.176 1.628-1.126a4538 4538 0 0 0 6.874-11.744M247.846 44.254a10.07 10.07 0 0 0-8.54 8.28 10.067 10.067 0 1 0 18.848-2.97 10.15 10.15 0 0 0-10.308-5.31m-6.102 7.374a7.84 7.84 0 0 1 7.45-5.316 7.922 7.922 0 0 1 7.549 10.409 7.93 7.93 0 0 1-7.611 5.43 7.92 7.92 0 0 1-7.388-10.523M233.352 40.3a16.54 16.54 0 0 0 10.784 3.4 37.8 37.8 0 0 0 10.468-1.384 1.07 1.07 0 0 0 .77-1.056 1.09 1.09 0 0 0-.81-1.024c-3.57-.726-6.56-3.746-8.876-8.942a6.05 6.05 0 0 0-1.78-2.628 2.9 2.9 0 0 0-2.138-.657 2.9 2.9 0 0 0-1.972 1.057c-.49.7-.776 1.52-.832 2.374a30 30 0 0 0-2.504-3.38 4.9 4.9 0 0 0-2.458-1.844 3.9 3.9 0 0 0-4.294 2.936 10.61 10.61 0 0 0 3.642 11.148m-.934-11.552a1.12 1.12 0 0 1 .894-.428 1.12 1.12 0 0 1 .886.446 32.3 32.3 0 0 1 5.564 8.666 1.075 1.075 0 0 0 1.917-.03c.117-.24.14-.514.065-.77a11.2 11.2 0 0 1-.56-5.478c.114-.478.374-1.046.824-1.02 1.848.082 1.514 4.588 7.154 9.8q.711.587 1.504 1.056a40.6 40.6 0 0 1-7.128.582c-6.046-.01-11.726-3.4-12.13-9.188a4.77 4.77 0 0 1 1.01-3.636M278.186 308.252c-12.174-5.61-26.908-4.254-37.124-2.128a40.2 40.2 0 0 0-13.754 5.474 17.6 17.6 0 0 0-5.2 5.252 1.09 1.09 0 0 0-.106.819 1.07 1.07 0 0 0 .506.653c.6.33 65.546.094 66.212.086a1.09 1.09 0 0 0 1.021-.812c.04-.151.047-.308.021-.462a1.1 1.1 0 0 0-.276-.55 36.1 36.1 0 0 0-11.3-8.332m7.954 8c-9.094 0-54.984.05-60.9.052a22.2 22.2 0 0 1 8.702-5.772 67.4 67.4 0 0 1 23.866-4.092c12.272.006 21.354 3.16 28.332 9.818zM381.284 316.586a37.62 37.62 0 0 0-25.138-11.972 76.3 76.3 0 0 0-23.288 1.51 40.3 40.3 0 0 0-13.752 5.474 17.5 17.5 0 0 0-5.2 5.252 1.1 1.1 0 0 0 .004 1.07 1.09 1.09 0 0 0 .922.542c2.756.018 62.248 0 65.692-.054a1.084 1.084 0 0 0 .76-1.822m-3.348-.328c-11.692 0-52.938.05-60.896.052a22.15 22.15 0 0 1 8.7-5.772 67.4 67.4 0 0 1 23.864-4.092c12.274 0 21.354 3.154 28.332 9.812M14.388 188.258a1.09 1.09 0 0 0 .856.098c.576-.086.274.132 9.568-16.098a1.086 1.086 0 0 0-.388-1.468 9.85 9.85 0 0 0-7.568-1.026 10.11 10.11 0 0 0-7.402 8.424 10.1 10.1 0 0 0 4.934 10.07m-2.8-10a7.89 7.89 0 0 1 3.932-5.626 7.87 7.87 0 0 1 6.85-.42l-7.778 13.568a7.93 7.93 0 0 1-3.012-7.53zM77.112 284.1a1.7 1.7 0 0 0-.528.166 8.54 8.54 0 0 0-3.766 2.72 8.32 8.32 0 0 0-.774 9.052 8.29 8.29 0 0 0 7.686 4.336 8.3 8.3 0 0 0 7.242-5.043 8.295 8.295 0 0 0-9.86-11.231m8.304 8.842a6.13 6.13 0 0 1-2.355 4.117 6.12 6.12 0 0 1-4.587 1.206 6.133 6.133 0 0 1 1.712-12.144 6.13 6.13 0 0 1 5.23 6.821M37.136 297.32c-7.058-10.95-7.754-11.94-7.894-12.09a1.104 1.104 0 0 0-1.676.138c-2.46 3.8-4.908 7.826-7.484 12.306a1.084 1.084 0 0 0 .932 1.614s14.762-.022 15.4-.028a1.068 1.068 0 0 0 .922-.538 1.245 1.245 0 0 0-.2-1.402m-2.7-.184H22.898c1.664-2.83 3.58-6.038 5.582-9.2zM138.612 290.86c-6.586-6.46-6.158-6.4-6.818-6.294a1.04 1.04 0 0 0-.712.312c-1.032 1.054-5.04 5.042-5.988 6a1.08 1.08 0 0 0 0 1.514 558 558 0 0 0 6.014 6 1.083 1.083 0 0 0 1.514 0c1.068-1.052 5.048-5.074 6-6a1.083 1.083 0 0 0-.01-1.532m-2.278.766-4.472 4.486-4.484-4.472 4.47-4.486zM65.93 115.116a1.02 1.02 0 0 0 .986-.988v-23.97a1.024 1.024 0 0 0-2.046 0v23.97a1.02 1.02 0 0 0 1.06.988M48.552 115.492a1.024 1.024 0 0 0 1.446-1.446l-17.26-17.26a1.025 1.025 0 0 0-1.446 1.446zM82.278 115.492l15.564-18.538c.842-1-.6-2.456-1.446-1.446l-15.566 18.54c-.83 1 .6 2.454 1.448 1.444M249.69 242.6a1.03 1.03 0 0 0-1.852-.208 1.03 1.03 0 0 0-.12.752c.878 2.936 1.738 5.878 2.638 8.8a1.03 1.03 0 0 0 1.852.208c.134-.226.177-.495.12-.752-.88-2.934-1.74-5.876-2.638-8.8M322.422 242.814a1.05 1.05 0 0 0-1.4-.366 1.025 1.025 0 0 0-.498 1.023q.03.201.132.377l4.3 5.846a1.04 1.04 0 0 0 1.4.366 1.026 1.026 0 0 0 .366-1.4zM321.972 181.758c-2.046-1.22-4.14-2.356-6.226-3.506a1.024 1.024 0 0 0-1.032 1.766c2.044 1.22 4.14 2.356 6.226 3.506a1.02 1.02 0 0 0 1.399-.367 1.02 1.02 0 0 0-.367-1.399"/><path fill="#333" d="m305.8 97.322 4.94 4.324c.988.866 2.44-.576 1.448-1.446l-4.942-4.324c-.984-.864-2.436.576-1.446 1.446M316.76 82.656l5.514 3.4c1.124.692 2.152-1.076 1.032-1.766l-5.514-3.4c-1.124-.69-2.152 1.076-1.032 1.766M226.172 146.81a1.02 1.02 0 0 0-1.259-.715 1.02 1.02 0 0 0-.715 1.259 91.8 91.8 0 0 0 13.2 34.118c.708 1.104 2.478.08 1.766-1.034a90 90 0 0 1-12.992-33.628M167.292 170.506a1.023 1.023 0 0 0-1.766 1.032 198 198 0 0 0 3.374 5.824q.103.175.265.299a1.03 1.03 0 0 0 1.134.068q.175-.103.299-.265a1.02 1.02 0 0 0 .068-1.134 201 201 0 0 0-3.374-5.824M179.702 160.022a1.05 1.05 0 0 0-1.258-.714 1.02 1.02 0 0 0-.743.861q-.025.203.029.399 1.2 2.898 2.414 5.798a1.046 1.046 0 0 0 1.258.714 1.026 1.026 0 0 0 .714-1.258zM320.126 7.57a102 102 0 0 1 12.098 6.486c1.118.7 2.146-1.07 1.032-1.766a102 102 0 0 0-12.098-6.486 1.046 1.046 0 0 0-1.4.368 1.017 1.017 0 0 0 .368 1.398M156.982 278.542H1.648a1.08 1.08 0 0 0-1.07 1.072c-.272 38.706-.2 39.924.35 40.222.316.364.09.298 12.168.286V330.4a1.019 1.019 0 0 0 1.73.694c.191-.182.304-.431.316-.694v-10.272h27.356V330.4a1.019 1.019 0 0 0 1.73.694c.191-.182.304-.431.316-.694v-10.272h4.026V330.4a1.019 1.019 0 0 0 1.73.694c.191-.182.304-.431.316-.694v-10.272h66.67V330.4a1.02 1.02 0 0 0 1.73.694c.191-.182.304-.431.316-.694v-10.272H138.7V330.4a1.022 1.022 0 0 0 1.221 1.004 1.02 1.02 0 0 0 .745-.613 1 1 0 0 0 .078-.391v-10.272h4.988V330.4a1.022 1.022 0 0 0 1.221 1.004 1.02 1.02 0 0 0 .745-.613 1 1 0 0 0 .078-.391v-10.272h9.212a1.08 1.08 0 0 0 1.068-1.076V279.61a1.075 1.075 0 0 0-1.074-1.068m-10.548 11.624h-4.156a1.02 1.02 0 0 0-.98 1.022 1.02 1.02 0 0 0 .98 1.024h3.454v25.76h-4.988V297.9a1.7 1.7 0 0 0-1.342-1.022H136.2a1.02 1.02 0 0 0-.98 1.024 1.02 1.02 0 0 0 .98 1.022h2.5v19.048h-19.368c0-27.62.114-26.08-.252-26.472-.422-.568 1.288-.896-29.216-.374a1.02 1.02 0 0 0-.98 1.022 1.02 1.02 0 0 0 .98 1.024h27.422v24.8h-66.67v-25.504a1.98 1.98 0 0 0-1.342-1.342H41.6a1.02 1.02 0 0 0-.98 1.022 1.02 1.02 0 0 0 .98 1.024h6.966v24.8h-4.022V297.9a1.7 1.7 0 0 0-1.342-1.022h-2.238a1.02 1.02 0 0 0-.98 1.024 1.02 1.02 0 0 0 .98 1.022h1.534v19.048H15.14v-26.078h4.412a1.02 1.02 0 0 0 .98-1.022 1.02 1.02 0 0 0-.98-1.024h-5.114a1.97 1.97 0 0 0-1.342 1.342v26.782H2.73v-37.28h153.174v37.28h-8.128v-25.824c.006-.202-.376-1.99-1.342-1.982"/><path fill="#333" d="M326.066 279.064a22.9 22.9 0 0 0 21.554 7.136A28.28 28.28 0 0 0 368 269.08c3.762-9.522 2.548-20.064 2-30.142-1.984-35.824-5.4-71.012-9.632-99.08a.5.5 0 0 0-.166-.3.5.5 0 0 0-.32-.124A68.88 68.88 0 0 0 342.8 92.686a43.1 43.1 0 0 0 1.77-14.298 14.087 14.087 0 0 0-5.38-10.03 58 58 0 0 0-9.322-6.718l2.6-4.448 14.452 8.4a9.74 9.74 0 0 0 10.952-.806 9.7 9.7 0 0 0 2.484-2.958c1.55-2.73 11.814-20.356 12.26-21.11a9.76 9.76 0 0 0-.506-10.96 9.7 9.7 0 0 0-2.884-2.564c-.094-.054-42.142-24.46-43.304-25.146a9.75 9.75 0 0 0-12.85 2.4c-.712.958-10.588 18.216-12.496 21.362a17.5 17.5 0 0 0-1.438 2.8 9.67 9.67 0 0 0 4.698 11.974c1.85 1.042 14.012 8.138 14.012 8.138l-6.24 10.744a9.25 9.25 0 0 0-6.576-.644 7.46 7.46 0 0 0-4.25 2.692 8.55 8.55 0 0 0-1.362 5.222 8.4 8.4 0 0 0 .842 3.038c-19.01-2.586-39.154-1.748-56.92 5.492-.024.01-.044.026-.068.038a.3.3 0 0 0-.058.014c-17.092 7.274-31.146 20.316-38.362 34.43-6.372 12.456-8.572 24.528-12.072 39.218-8.162-4.6-18.584-3.528-26.038.646a26.82 26.82 0 0 0-13.238 25.518c.614 5.15 3.616 10.444 9.18 16.184.19.2 2.356-4.2-28.038 54.64-.412-.158-.936-.354-1.42-.536 8.474-11.67 7.862-27.904-1.666-43.646.872-.8 6.56-6.024 8.494-7.866a4.88 4.88 0 0 0 1.2-5.449 4.89 4.89 0 0 0-4.692-3.021c-2.448.04-4.014 2.032-5.634 3.536l-5.1 4.722a84.8 84.8 0 0 0-21.386-18.494c.84-.94 1.514-2.014 2-3.178 5.224-9.6 5.182-9.434 5.5-10.368a4.913 4.913 0 0 0-8.232-4.782 28.5 28.5 0 0 0-3.2 5.5c-4 7.374-4.032 7.212-4.332 8.308a86.5 86.5 0 0 0-23.4-7.6c.036-.934.3-7.21.352-9.418a4.89 4.89 0 0 0-2.833-4.611 4.9 4.9 0 0 0-2.8-.392 4.9 4.9 0 0 0-2.547 1.225 6.3 6.3 0 0 0-1.698 5.068L63 162.116c-10.464-.344-28.954 1.444-39.096 16.636-10.036 15.03-3.676 34.316 4.916 46.444-.754.696-5.746 5.276-7.456 6.906a4.796 4.796 0 0 0-.9 5.904 4.8 4.8 0 0 0 1.446 1.566c.792.546 1.73.84 2.692.846 2.388.058 3.872-1.748 5.476-3.24l4.816-4.458a77.5 77.5 0 0 0 8.2 7.736c-9.25 1.294-34.04 5.4-33.972 14.66a7.14 7.14 0 0 0 2.932 5.05 30 30 0 0 0 7.6 4.07c22.158 7.938 53.946 7.848 67.14 7.4a4.813 4.813 0 0 0 4.764 4.744 4.99 4.99 0 0 0 4.918-5.242 174.6 174.6 0 0 0 29.464-4.272 72 72 0 0 0 10.622-3.456 20.4 20.4 0 0 0 6.556-4.136 5.56 5.56 0 0 0 .834-7.438l50-47.712a27.54 27.54 0 0 0 21.442 3.658c11.268-2.67 20.244-11.778 25.534-22.184a69.5 69.5 0 0 0 7.616 6.892c-.172.218.29-1.2-4.442 20.822-2.814 13.106-5.474 25.488-7.45 37.436a56.5 56.5 0 0 0-.734 13.9c1.172 14.38 12.8 27.296 26.05 27.296s24.132-12.2 29.094-24.326a367 367 0 0 0 12.694-41.28c2.922 9.214 10.188 29.324 15.362 41.258a33.3 33.3 0 0 0 6.948 11.468m33.188-131.846c4.114 29.276 7.168 63.432 9.076 101.56a61.4 61.4 0 0 1-1.02 15.03 26.34 26.34 0 0 1-21.146 20.46 22.111 22.111 0 0 1-22.538-12.068c-4.764-8.756-16.466-41.246-19.018-50.432a1.085 1.085 0 0 0-1.062-.771 1.08 1.08 0 0 0-1.022.823 88 88 0 0 1-2.18 9.136c-3 10.718-4.846 18.11-9.694 31.768-9.848 27.73-29.586 31.758-41.29 22.538a30.04 30.04 0 0 1-10.646-16.624c-1.862-7.912-.32-16.172 1.176-24.16 3.8-20.336 6.838-32.532 10.49-50.584a68.814 68.814 0 0 0 91.382-9.23.6.6 0 0 0 .256-.286 68.1 68.1 0 0 0 17.236-37.16M340.346 183.2c-18.464 14.768-44.278 10.452-54.086-9.906a44 44 0 0 1-3.39-23.872 273 273 0 0 1 4.438-28.238 8.46 8.46 0 0 0 10.442.4 8.56 8.56 0 0 0 2.652-3.094c20.52 10.882 17.764 9.052 26.182 13.374 3.574 1.836 3.57 2.134 4.31 1.88.97-.332.376-.8 2.636-11.062a62 62 0 0 1 1.768-6.5c.356-1.08 6.264-19.12 6.848-21.118a66.87 66.87 0 0 1-1.8 88.136m-53.83-69.712a16.7 16.7 0 0 1 2.546-5.078c.514-.888 1.084-1.764 1.568-2.676a409 409 0 0 0 11.106 6.37l-2.612 4.5c-4.302 8.54-13.966 3.642-12.608-3.116m24.72-71.106c-7.584-4.4-7.464-4.316-8.292-5.11A7.39 7.39 0 0 1 301 29.8c.332-.976.784-1.908 1.346-2.772 1.438-2.34 11.836-20.38 11.91-20.506a7.71 7.71 0 0 1 6.43-3.78c2.01.113 3.946.8 5.578 1.98 0 0 40.72 23.642 41.82 24.288a7.74 7.74 0 0 1 2.704 10.564 13763 13763 0 0 0-11 18.968 12.45 12.45 0 0 1-4.2 5.2 7.64 7.64 0 0 1-7.584-.018c-3.626-2.088-25.91-15.052-36.768-21.342m8.412 7.304 11.082 6.434-6.4 10.94a94.5 94.5 0 0 0-10.8-6.836c1.91-3.294 5.99-10.32 6.118-10.538M298.1 71.852c1.684.26 3.316.796 4.826 1.586.6.38 1.232.708 1.886.982a1 1 0 0 0 1.332-.938 1 1 0 0 0-.194-.594 18.4 18.4 0 0 0-2.424-2.148 8.7 8.7 0 0 1-1.24-1.56 5.12 5.12 0 0 1 .864-5.944 5.12 5.12 0 0 1 5.914-1.044 85.6 85.6 0 0 1 15 7.376.83.83 0 0 0 .95.014c.53-.234.48-.436 3.838-6.18a57 57 0 0 1 8.06 5.66 13.25 13.25 0 0 1 5.47 8.178 38.1 38.1 0 0 1-1.8 15.832c-2 7.188-7.154 21.6-8.29 25.962-1.014 3.902-1.862 8.38-2.536 12.19-6.106-3.302-8.6-4.034-28.32-14.516 2.866-4.936 2.962-4.68 2.546-5.568-.65-1-14.6-7.582-18.86-15.322a9.02 9.02 0 0 1 1.352-6.246 5.29 5.29 0 0 1 4.506-2.496c.534 0 1.07.034 1.6.102 2.976.718 5.174 2.234 5.97 2.136a1.03 1.03 0 0 0 .824-.692 1.04 1.04 0 0 0-.234-1.052 31 31 0 0 1-4.764-4.458c-3.83-4.526-1.53-10.938 3.724-11.26m-28.928-.744c-.33 4.47-.8 8.93-.814 13.412a95 95 0 0 1-.818 14.14c-.536 3.5-1.856 8.02-5.516 9.472-3.824 1.518-7.936-.764-10.278-3.746a32.15 32.15 0 0 1-5.366-13.548 93 93 0 0 1-1.694-13.928 91 91 0 0 1 24.486-5.802m-79.418 89.306c2.076 3.074 5.372 5.074 7.554 8.074 1.732 2.382 3.082 6.266.6 8.656-2.174 2.094-4.8-.09-6.536-1.616-2.304-2.016-4.644-3.99-6.914-6.044a1.02 1.02 0 0 0-1.32-.05 1.026 1.026 0 0 0-.28 1.29l3.688 7.836c1 2.128 2.156 4.68 1.314 7.052a4.2 4.2 0 0 1-1.801 2.031 4.2 4.2 0 0 1-2.665.515 9.36 9.36 0 0 1-4.974-2.4 28.4 28.4 0 0 1-4.1-4.556c-.746-1.058-2.494-.088-1.764 1.032 1.244 1.91 2.446 3.85 3.714 5.746a11.9 11.9 0 0 1 1.894 4.658 3.91 3.91 0 0 1-1.176 3.746c-1.836 1.35-3.986.374-5.676-.676a38.4 38.4 0 0 1-6.504-5.262 1 1 0 0 0-.4-.234v-.012a.5.5 0 0 0-.14-.366c-3.068-3.156-7.28-8.014-8.432-13.718A24.17 24.17 0 0 1 166.6 152.2a26.98 26.98 0 0 1 20.498-3.354 3.47 3.47 0 0 0-.76 1.618 20.1 20.1 0 0 0 3.416 9.95M134.636 260.51c.766-.47.4-.174 7.712-7.164a3.46 3.46 0 0 1-.734 4.37 18.1 18.1 0 0 1-5.8 3.672c-9.532 3.898-22.4 6.382-39.32 7.6l.296-7.936c14.788.224 27.516-4.814 35.054-13.868.578.214 1.27.476 1.812.682-.912 1.766-3.266 6.312-3.942 7.638a3.69 3.69 0 0 0 .631 4.302 3.68 3.68 0 0 0 4.291.704m-69.2-106.4a2.92 2.92 0 0 1 3.438-3.286 2.87 2.87 0 0 1 2.106 2.83c-.06 2.14-.34 9.13-.34 9.13a71 71 0 0 0-5.504-.562c.064-1.8.304-8.12.304-8.12zm32.832 17.616a7.6 7.6 0 0 1 1.318-3.134l4.34-8a5.85 5.85 0 0 1 1.98-2.704 2.78 2.78 0 0 1 2.433-.092 2.77 2.77 0 0 1 1.567 1.864c.136 1-.122 2.014-.72 2.826l-4.58 8.434a8.2 8.2 0 0 1-2.09 3.124 176 176 0 0 0-4.244-2.326zm-4 99.458a2.71 2.71 0 0 1-1.462 2.752 2.7 2.7 0 0 1-3.084-.45c-1.116-1.098-.8-2.27-.714-4.542.046-1.318.132-3.762.302-8.352 1.77.2 3.6.338 5.336.4zm-38.57-9.824a2.764 2.764 0 0 1-4.6 1.2 2.68 2.68 0 0 1-.468-3.078c.272-.6.514-.942 5.448-10.016 2 1.14 3.074 1.708 4.718 2.518zm-5.288-5.974c-1.172 2.156-2.776 4.216-2 6.772a4.834 4.834 0 0 0 5.679 3.235 4.8 4.8 0 0 0 2.109-1.075 10.9 10.9 0 0 0 2.126-3.3l4.4-8.096a86 86 0 0 0 24.438 7.4s-.32 8.442-.364 9.182c-11.08.362-22.172.086-33.22-.826a160 160 0 0 1-26.9-4.414 60.6 60.6 0 0 1-9.05-3.184 17.3 17.3 0 0 1-5.322-3.6 3.33 3.33 0 0 1-.85-3.474 9.37 9.37 0 0 1 4.706-4.222c8.176-4.31 21.706-6.514 29.184-7.456a98 98 0 0 0 8.868 6.066zm-27.558-21.74c1.718-1.568 7.234-6.7 7.234-6.7a75 75 0 0 0 3.368 4.17l-5.932 5.496a5.94 5.94 0 0 1-2 1.532 2.662 2.662 0 0 1-3.529-2.917c.095-.611.4-1.17.861-1.581zm115.712-41.306c-1.94 1.772-8.164 7.562-8.164 7.562a67 67 0 0 0-3.222-4.542l6.4-5.934a7.3 7.3 0 0 1 2.116-1.694 2.759 2.759 0 0 1 2.868 4.6zM25.03 181.052a31.5 31.5 0 0 1 13.284-12.06c28.454-13.65 67.872 3.07 86.838 27.254 11.724 14.95 14.974 31.31 8.75 43.886-8.334-4.532-101.234-55.008-108.872-59.08m6.236 43.848c-10.556-14.522-13.2-29.774-7.282-41.942 0 0 103.092 56 108.872 59.078C114.4 271.826 56.6 259.758 31.266 224.9m102.842 33.484a1.63 1.63 0 0 1-2.778-.988 1.65 1.65 0 0 1 .266-1.09c1.478-2.854 31.708-61.4 32.77-63.458a36.4 36.4 0 0 0 5.586 4.424 7.561 7.561 0 0 0 7.27 1.312c3.888-1.71 3.4-6.528 1.872-9.788 6.242 3.8 13.696-.316 10.152-9.148-.732-1.822-1.566-3.6-2.422-5.388a40 40 0 0 0 6.04 4.978 5.52 5.52 0 0 0 5 .364c3.272-1.4 3.926-5.458 3.028-8.544-1.2-4.138-4.866-6.86-7.774-9.788a17.94 17.94 0 0 1-4.444-8.584c1.114.8 31.046 22.574 31.896 23.2-47.932 45.732-85.516 81.58-86.462 82.498m107.278-75.254a1.04 1.04 0 0 0-1.28-.13 1 1 0 0 0-.32.33c-6.2 13.076-18.8 24.722-34.2 22.98a23.35 23.35 0 0 1-10.136-3.63s27.084-25.826 27.45-26.188a1.01 1.01 0 0 0 .284-.848 1.02 1.02 0 0 0-.484-.752l-21.462-15.6c.67-.472 1.088-2.482-1.344-5.026a25.2 25.2 0 0 0-5.262-4.16c2.972-12.414 5.272-25.19 10.756-36.8a73.8 73.8 0 0 1 37.2-35.52 83.4 83.4 0 0 0 2.482 16.878c1.332 5.164 3.558 10.868 8.108 14.04 4.12 2.87 10.138 2.898 13.306-1.318a16.8 16.8 0 0 0 3-7.258c.516-2.928.828-5.888.934-8.858.4-12.938-.2-4.372.968-20.356a116.6 116.6 0 0 1 20.972.072A8.08 8.08 0 0 0 289 78.962a12.17 12.17 0 0 0 3.872 6.132c-.2-.026-.412-.04-.62-.054a8.41 8.41 0 0 0-8.7 3.524c-3.652 5.514.8 10.754 5.716 15.2-.068.184-3.82 6.624-4.314 7.86a8.32 8.32 0 0 0 .658 7.54c-1.888 8.836-3.226 17.788-4.4 26.74a68.6 68.6 0 0 0-.558 14.318c2.024 26.048 27.954 41.626 52.44 29.818a66.873 66.873 0 0 1-91.708-6.91"/></svg>