<svg xmlns="http://www.w3.org/2000/svg" width="24" height="24" fill="none"><path fill="#333" fill-rule="evenodd" d="M0 2.756C0 1.248 1.222 0 2.699 0h11.693c1.477 0 2.699 1.248 2.699 2.756v4.593a.91.91 0 0 1-.9.919.91.91 0 0 1-.9-.919V2.756c0-.493-.416-.919-.899-.919H2.7c-.484 0-.9.426-.9.919v11.943c0 .493.416.918.9.918h4.497c.497 0 .9.412.9.919a.91.91 0 0 1-.9.918H2.7C1.222 17.455 0 16.208 0 14.7z" clip-rule="evenodd"/><path fill="#333" fill-rule="evenodd" d="M6.182 9.301a2.774 2.774 0 0 1 2.756-2.756H20.88a2.774 2.774 0 0 1 2.756 2.756v11.943A2.756 2.756 0 0 1 20.88 24H8.938a2.774 2.774 0 0 1-2.756-2.756zm2.756-.918a.937.937 0 0 0-.919.918v11.943c0 .493.425.919.919.919H20.88a.92.92 0 0 0 .919-.919V9.301a.937.937 0 0 0-.919-.918z" clip-rule="evenodd"/></svg>