<svg xmlns="http://www.w3.org/2000/svg" width="120" height="32" fill="none"><path fill="#333" d="M119.018 3.313q.473.219.727.619.255.363.255.836 0 .327-.182.69l-7.711 16.255q-.545 1.2-1.672 1.2-.619 0-1.019-.255-.4-.291-.728-.946l-7.71-16.253a1.44 1.44 0 0 1-.146-.655q0-.981 1.018-1.49a1.55 1.55 0 0 1 .764-.182q.436 0 .837.254.4.219.618.655l6.329 13.636 6.256-13.636q.219-.437.618-.655a1.8 1.8 0 0 1 .91-.254q.473 0 .836.181M99.684 12.695q0 .69-.473 1.164-.473.435-1.2.436H84.19q.4 2.545 2.291 4.109 1.928 1.563 4.692 1.563 1.092 0 2.255-.4 1.2-.4 1.964-.982.51-.4 1.2-.4.692 0 1.092.364.654.546.654 1.237 0 .655-.582 1.09-1.236.982-3.091 1.6-1.819.618-3.492.619-2.982 0-5.347-1.273a9.63 9.63 0 0 1-3.71-3.6q-1.31-2.29-1.31-5.2 0-2.909 1.238-5.2 1.274-2.327 3.491-3.6 2.255-1.309 5.093-1.309 2.801 0 4.837 1.237 2.037 1.236 3.128 3.454 1.09 2.219 1.091 5.09M90.628 6.04q-2.655 0-4.329 1.454-1.636 1.455-2.073 3.891h12.112q-.327-2.436-1.819-3.89-1.49-1.455-3.892-1.455M75.34 2.84q1.928 0 3.02.583 1.09.58 1.091 1.454 0 .255-.037.364-.327 1.163-1.454 1.163-.181 0-.546-.072-1.455-.255-2.364-.255-2.618 0-4.22 1.2-1.6 1.2-1.6 3.236v10.618q0 .872-.472 1.345-.437.473-1.346.473-.873 0-1.346-.436-.473-.473-.473-1.382V4.877q0-.873.473-1.345.473-.473 1.346-.473 1.818 0 1.818 1.818v.69a7.7 7.7 0 0 1 2.692-1.999 8.2 8.2 0 0 1 3.419-.727M50.07 23.095q-2.91 0-5.202-1.273a9.25 9.25 0 0 1-3.564-3.6q-1.273-2.29-1.273-5.2 0-2.945 1.273-5.236a9 9 0 0 1 3.564-3.564q2.291-1.309 5.201-1.309 2.874 0 5.129 1.31a9 9 0 0 1 3.565 3.563q1.308 2.291 1.309 5.236 0 2.91-1.273 5.2a9.25 9.25 0 0 1-3.565 3.6q-2.255 1.273-5.165 1.273m0-3.273q1.855 0 3.31-.873a5.9 5.9 0 0 0 2.29-2.4q.837-1.563.837-3.527t-.836-3.527a5.85 5.85 0 0 0-2.292-2.436q-1.455-.873-3.31-.873t-3.346.873q-1.455.873-2.291 2.436-.837 1.564-.837 3.527t.837 3.527a6.23 6.23 0 0 0 2.291 2.4q1.492.873 3.346.873M28.225 23.095q-2.873 0-5.165-1.31a9.5 9.5 0 0 1-3.601-3.6q-1.273-2.326-1.273-5.163 0-2.909 1.237-5.2 1.273-2.327 3.528-3.6 2.254-1.309 5.092-1.309 4.291 0 7.13 3.273.362.4.363.945 0 .8-.8 1.346-.364.255-.837.254-.836 0-1.419-.654-.91-.982-2-1.418-1.055-.473-2.437-.473-2.801 0-4.546 1.89-1.747 1.856-1.747 4.946.001 1.964.8 3.527a6.23 6.23 0 0 0 2.292 2.4q1.492.873 3.383.873 2.473 0 4-1.273.691-.51 1.347-.509.51 0 .945.327.69.582.691 1.31 0 .544-.436.981-2.619 2.436-6.547 2.437"/><path fill="#AEFFDE" fill-rule="evenodd" d="M.484.478a1.67 1.67 0 0 1 2.338 0l12.4 12.237c.646.637.646 1.67 0 2.308L2.822 27.26a1.67 1.67 0 0 1-2.338 0 1.616 1.616 0 0 1 0-2.308l11.23-11.083L.485 2.785a1.617 1.617 0 0 1 0-2.307m16.049 29.707c0-.901.74-1.631 1.653-1.631h16.533c.913 0 1.653.73 1.653 1.63 0 .902-.74 1.633-1.653 1.633H18.186c-.913 0-1.653-.73-1.653-1.632" clip-rule="evenodd"/></svg>