<svg xmlns="http://www.w3.org/2000/svg" width="344" height="70" fill="none"><path fill="#D9D9D9" d="M210.185 69.911c.48-.02.935-.214 1.275-.543.341-.329.542-.77.564-1.235V2.077a1.83 1.83 0 0 0-.649-1.13 1.95 1.95 0 0 0-1.252-.443c-.459 0-.902.157-1.251.446-.349.288-.58.688-.651 1.127v66.056c.023.487.241.945.608 1.278.367.332.854.512 1.356.5M193.008 19.162q.763.352 1.174.998.411.585.411 1.35 0 .527-.294 1.114l-12.443 26.229q-.88 1.936-2.699 1.936-.997 0-1.644-.41-.645-.47-1.174-1.526l-12.443-26.229a2.3 2.3 0 0 1-.235-1.056q0-1.584 1.644-2.406.528-.293 1.232-.293.705 0 1.35.41.647.352.999 1.057l10.212 22.004 10.095-22.004a2.4 2.4 0 0 1 .998-1.056q.704-.411 1.467-.411t1.35.293M161.809 34.3q0 1.116-.763 1.879-.763.704-1.937.704h-22.303q.645 4.107 3.697 6.63 3.111 2.524 7.571 2.524 1.762 0 3.64-.646 1.936-.645 3.169-1.585.822-.645 1.937-.645t1.761.587q1.056.88 1.056 1.995 0 1.056-.939 1.76-1.995 1.584-4.988 2.582-2.935.998-5.636.998-4.812 0-8.628-2.054-3.814-2.113-5.986-5.81-2.113-3.695-2.113-8.39t1.996-8.39q2.054-3.756 5.634-5.81 3.64-2.112 8.217-2.112 4.52 0 7.807 1.995 3.286 1.995 5.047 5.574t1.761 8.215m-14.615-10.737q-4.284 0-6.984 2.347-2.641 2.348-3.345 6.279h19.544q-.528-3.931-2.934-6.279t-6.281-2.347M122.526 18.4q3.111 0 4.872.938 1.76.94 1.761 2.347 0 .411-.059.587-.528 1.878-2.348 1.878-.293 0-.88-.118-2.349-.41-3.815-.41-4.227 0-6.809 1.936t-2.582 5.222v17.134q0 1.409-.763 2.17-.705.764-2.172.764-1.409 0-2.172-.704-.762-.763-.763-2.23V21.685q0-1.408.763-2.17.763-.765 2.172-.764 2.935 0 2.935 2.934V22.8q1.76-2.054 4.343-3.227t5.517-1.174M81.746 51.083q-4.695 0-8.393-2.054-3.698-2.113-5.752-5.81-2.055-3.695-2.055-8.39 0-4.752 2.055-8.45a14.5 14.5 0 0 1 5.752-5.75q3.697-2.112 8.393-2.112 4.637 0 8.276 2.112a14.5 14.5 0 0 1 5.752 5.75q2.112 3.698 2.112 8.45 0 4.695-2.054 8.39-2.055 3.697-5.752 5.81-3.639 2.054-8.334 2.054m0-5.281q2.994 0 5.34-1.408a9.52 9.52 0 0 0 3.698-3.874q1.35-2.523 1.35-5.69 0-3.17-1.35-5.693-1.29-2.523-3.697-3.931-2.347-1.408-5.341-1.408-2.993 0-5.4 1.408-2.348 1.409-3.698 3.931-1.35 2.524-1.35 5.692t1.35 5.691q1.35 2.465 3.698 3.874 2.406 1.408 5.4 1.408M46.496 51.083q-4.638 0-8.335-2.113a15.35 15.35 0 0 1-5.811-5.809q-2.055-3.755-2.054-8.332 0-4.695 1.995-8.39 2.055-3.756 5.694-5.81 3.638-2.112 8.217-2.112 6.926 0 11.504 5.28.586.647.587 1.526 0 1.291-1.292 2.171-.586.411-1.35.411-1.35 0-2.289-1.056-1.467-1.585-3.228-2.289-1.702-.762-3.932-.762-4.519 0-7.337 3.05-2.817 2.994-2.817 7.981 0 3.169 1.291 5.691 1.35 2.465 3.698 3.874 2.406 1.408 5.459 1.408 3.99 0 6.456-2.054 1.114-.822 2.172-.822.82 0 1.525.529 1.115.938 1.115 2.112 0 .88-.704 1.584-4.225 3.932-10.565 3.932"/><path fill="#D9D9D9" fill-rule="evenodd" d="M1.73 14.586a2.693 2.693 0 0 1 3.774 0l20.008 19.748a2.61 2.61 0 0 1 0 3.723L5.505 57.805a2.693 2.693 0 0 1-3.774 0 2.61 2.61 0 0 1 0-3.723l18.123-17.886L1.73 18.31a2.61 2.61 0 0 1 0-3.724m25.898 47.939c0-1.454 1.195-2.633 2.668-2.633h26.679c1.474 0 2.668 1.179 2.668 2.633s-1.194 2.633-2.668 2.633h-26.68c-1.472 0-2.667-1.179-2.667-2.633" clip-rule="evenodd"/><path fill="#D9D9D9" d="M331.179 51q-1.104 0-1.794-.644-.644-.69-.644-1.702V21.1h4.922v27.554a2.24 2.24 0 0 1-.736 1.702q-.69.645-1.748.644m-10.442-27.784q-.966 0-1.656-.598-.69-.644-.69-1.656 0-.966.69-1.564t1.656-.598h20.93q.966 0 1.61.644.69.598.69 1.564 0 1.012-.69 1.61-.644.598-1.61.598zM303.673 51.46q-3.312 0-5.888-.92t-4.922-3.036a2.6 2.6 0 0 1-.782-.874 2.8 2.8 0 0 1-.23-1.104q0-.874.644-1.564t1.61-.69q.735 0 1.38.506 1.747 1.61 3.634 2.438 1.932.828 4.508.828 1.84 0 3.358-.598 1.563-.598 2.484-1.61.92-1.012.92-2.346 0-1.656-.966-2.714-.92-1.104-2.714-1.794-1.748-.736-4.232-1.242-2.301-.415-4.14-1.15-1.795-.736-3.082-1.84a7.84 7.84 0 0 1-1.978-2.714q-.69-1.564-.69-3.634 0-2.805 1.472-4.83t4.002-3.128q2.53-1.104 5.704-1.104 2.898 0 5.428.92 2.53.874 4.094 2.392 1.104.966 1.104 2.07 0 .828-.69 1.564-.645.69-1.518.69a1.7 1.7 0 0 1-1.104-.368q-.736-.782-1.978-1.38a14.7 14.7 0 0 0-2.668-1.058 9.3 9.3 0 0 0-2.668-.414q-2.07 0-3.542.598-1.473.553-2.254 1.564-.782.965-.782 2.3 0 1.564.874 2.576.92 1.013 2.53 1.656 1.61.598 3.68 1.104 2.53.552 4.508 1.242 2.024.69 3.404 1.794a6.95 6.95 0 0 1 2.116 2.668q.736 1.61.736 4.002 0 2.76-1.564 4.83t-4.14 3.22q-2.53 1.15-5.658 1.15M288.137 34.9q0 3.496-1.15 6.532-1.15 2.99-3.266 5.244a15 15 0 0 1-4.922 3.542q-2.853 1.242-6.256 1.242-3.359 0-6.21-1.242a15.5 15.5 0 0 1-4.968-3.542q-2.07-2.254-3.22-5.244-1.104-3.036-1.104-6.532t1.104-6.486q1.15-3.036 3.22-5.29a14.9 14.9 0 0 1 4.968-3.496q2.852-1.288 6.21-1.288 3.403 0 6.256 1.288a14.4 14.4 0 0 1 4.922 3.496q2.115 2.254 3.266 5.29 1.15 2.99 1.15 6.486m-4.968 0q0-3.405-1.38-6.118-1.335-2.714-3.726-4.278-2.393-1.564-5.52-1.564-3.083 0-5.474 1.564t-3.726 4.278q-1.334 2.668-1.334 6.118 0 3.405 1.334 6.118t3.726 4.278 5.474 1.564q3.127 0 5.52-1.564 2.391-1.564 3.726-4.278 1.38-2.715 1.38-6.118M228.21 18.8q.92 0 1.61.69.736.644.736 1.656v27.508a2.4 2.4 0 0 1-.782 1.702q-.69.645-1.656.644-1.058 0-1.748-.644-.644-.69-.644-1.702V21.146q0-1.012.69-1.656.69-.69 1.794-.69m20.746 0q1.104 0 1.748.69.644.644.644 1.656v27.508q0 1.012-.69 1.702-.644.645-1.748.644a2.34 2.34 0 0 1-1.656-.644q-.69-.69-.69-1.702V21.146q0-1.012.69-1.656.736-.69 1.702-.69m-20.93 13.708h20.976l-.046 4.416H227.98z"/></svg>