<svg xmlns="http://www.w3.org/2000/svg" width="287" height="70" fill="none"><path fill="#333" d="M210.185 69.911c.48-.02.935-.214 1.275-.543.341-.329.542-.77.564-1.235V2.077c-.069-.44-.3-.84-.649-1.13a1.95 1.95 0 0 0-1.252-.443c-.459 0-.902.157-1.251.446-.349.288-.58.688-.651 1.127v66.056c.023.487.241.945.608 1.278.367.332.854.512 1.356.5M193.008 19.162q.762.352 1.174.998.411.585.411 1.35 0 .527-.294 1.114l-12.443 26.229q-.88 1.936-2.699 1.936-.997 0-1.644-.41-.645-.47-1.174-1.526l-12.443-26.229a2.3 2.3 0 0 1-.235-1.056q0-1.584 1.644-2.406.528-.293 1.232-.293.705 0 1.35.41.646.352.999 1.057l10.212 22.004 10.095-22.004q.352-.705.998-1.056.704-.411 1.467-.411t1.35.293M161.809 34.3q0 1.116-.763 1.879-.763.704-1.937.704h-22.304q.646 4.107 3.698 6.63 3.111 2.524 7.571 2.524 1.762 0 3.64-.646 1.936-.645 3.169-1.585.822-.645 1.937-.645t1.761.587q1.056.88 1.056 1.995 0 1.056-.939 1.76-1.995 1.584-4.988 2.582-2.935.998-5.636.998-4.812 0-8.628-2.054-3.814-2.113-5.986-5.81-2.113-3.695-2.113-8.39t1.996-8.39q2.054-3.756 5.634-5.81 3.639-2.112 8.217-2.112 4.52 0 7.807 1.995 3.286 1.995 5.047 5.574t1.761 8.215m-14.615-10.737q-4.284 0-6.984 2.347-2.641 2.348-3.345 6.279h19.544q-.528-3.931-2.934-6.279t-6.281-2.347M122.526 18.4q3.111 0 4.872.938 1.76.94 1.761 2.347 0 .411-.059.587-.528 1.878-2.348 1.878-.293 0-.88-.118-2.349-.41-3.815-.41-4.227 0-6.809 1.936t-2.582 5.222v17.134q0 1.409-.763 2.17-.705.764-2.172.764-1.409 0-2.172-.704-.762-.763-.763-2.23V21.685q0-1.408.763-2.17.763-.765 2.172-.764 2.935 0 2.935 2.934V22.8q1.76-2.054 4.343-3.227t5.517-1.174M81.746 51.083q-4.695 0-8.393-2.054-3.698-2.113-5.752-5.81-2.055-3.695-2.055-8.39 0-4.752 2.055-8.45a14.5 14.5 0 0 1 5.752-5.75q3.697-2.112 8.393-2.112 4.637 0 8.276 2.112a14.5 14.5 0 0 1 5.752 5.75q2.112 3.698 2.112 8.45 0 4.695-2.054 8.39-2.055 3.697-5.752 5.81-3.639 2.054-8.334 2.054m0-5.281q2.994 0 5.34-1.408a9.5 9.5 0 0 0 3.698-3.874q1.35-2.523 1.35-5.69 0-3.17-1.35-5.693-1.29-2.523-3.697-3.931-2.347-1.408-5.341-1.408-2.993 0-5.4 1.408-2.348 1.409-3.698 3.931-1.35 2.524-1.35 5.692t1.35 5.691q1.35 2.465 3.698 3.874 2.406 1.408 5.4 1.408M46.496 51.083q-4.638 0-8.335-2.113a15.35 15.35 0 0 1-5.811-5.809q-2.054-3.755-2.054-8.332 0-4.695 1.995-8.39 2.055-3.756 5.694-5.81 3.638-2.112 8.217-2.112 6.925 0 11.504 5.28.586.647.587 1.526 0 1.291-1.292 2.171-.586.411-1.35.411-1.35 0-2.289-1.056-1.467-1.585-3.228-2.289-1.703-.762-3.932-.762-4.52 0-7.337 3.05-2.817 2.994-2.818 7.981.001 3.169 1.292 5.691 1.35 2.465 3.698 3.874 2.406 1.408 5.459 1.408 3.99 0 6.456-2.054 1.115-.822 2.171-.822.821 0 1.526.529 1.115.938 1.115 2.112 0 .88-.704 1.584-4.226 3.932-10.565 3.932"/><path fill="#AEFFDE" fill-rule="evenodd" d="M1.73 14.586a2.693 2.693 0 0 1 3.774 0l20.008 19.748a2.61 2.61 0 0 1 0 3.723L5.504 57.805a2.693 2.693 0 0 1-3.774 0 2.61 2.61 0 0 1 0-3.723l18.123-17.886L1.73 18.31a2.61 2.61 0 0 1 0-3.724m25.898 47.939c0-1.454 1.195-2.633 2.668-2.633h26.679c1.473 0 2.668 1.179 2.668 2.633s-1.195 2.633-2.668 2.633h-26.68c-1.472 0-2.667-1.179-2.667-2.633" clip-rule="evenodd"/><path fill="#333" d="M249.751 20.668q1.005.502 1.141 1.552.183 1.05-.502 1.917a1.83 1.83 0 0 1-1.323.776q-.776.09-1.552-.32a14.7 14.7 0 0 0-2.784-1.095 11.4 11.4 0 0 0-3.103-.41q-2.601 0-4.701.866a9.9 9.9 0 0 0-3.56 2.42q-1.505 1.551-2.327 3.696-.776 2.145-.776 4.746 0 2.875.867 5.112.867 2.19 2.373 3.742a10.4 10.4 0 0 0 3.606 2.282q2.099.73 4.518.73 1.551 0 3.012-.365a11.4 11.4 0 0 0 2.83-1.095q.821-.411 1.597-.274.822.091 1.323.776.776.959.548 1.962-.183.959-1.141 1.46-1.141.639-2.51 1.096-1.37.456-2.784.73t-2.875.274q-3.286 0-6.207-1.096a15.8 15.8 0 0 1-5.203-3.194q-2.282-2.1-3.605-5.157-1.278-3.058-1.278-6.983 0-3.514 1.187-6.48 1.232-3.012 3.423-5.157a15.7 15.7 0 0 1 5.202-3.378q2.967-1.232 6.481-1.232a16.4 16.4 0 0 1 4.244.548q2.1.547 3.879 1.551M273.745 46.317q.959 0 1.598.639.684.639.684 1.597 0 .96-.684 1.598-.64.638-1.598.638h-15.334q-1.003 0-1.689-.639-.639-.684-.639-1.688V21.17q0-1.004.685-1.643.685-.684 1.78-.684.913 0 1.597.684.73.64.73 1.643v25.923l-.958-.776zM286.056 48.462a2.38 2.38 0 0 1-.775 1.688 2.32 2.32 0 0 1-1.643.64q-1.05 0-1.735-.64-.639-.684-.639-1.688V21.17q0-1.004.685-1.643.685-.684 1.78-.684.913 0 1.597.684.73.64.73 1.643z"/></svg>