<svg xmlns="http://www.w3.org/2000/svg" width="24" height="24" fill="none"><g clip-path="url(#a)"><path fill="#333" d="M12 11.613a1.161 1.161 0 0 0 0-2.323zM1.161 9.29a1.161 1.161 0 0 0 0 2.323zM12 9.29a1.161 1.161 0 0 0 0 2.323zm10.839 2.323a1.161 1.161 0 1 0 0-2.323zm-12-1.161a1.161 1.161 0 0 0 2.322 0zm2.322-9.29a1.161 1.161 0 0 0-2.322 0zm-10.838 9.29a1.161 1.161 0 0 0-2.323 0zm21.677 0a1.161 1.161 0 0 0-2.323 0zm-24 0a1.161 1.161 0 1 0 2.323 0zm12-8.13A1.161 1.161 0 0 0 12 0zm9.677 8.13a1.161 1.161 0 0 0 2.323 0zM12 0a1.161 1.161 0 0 0 0 2.323zm0 9.29H1.161v2.323H12zm0 2.323h10.839V9.29H12zm1.161-1.161v-9.29H10.84v9.29zM0 10.452v6.193h2.323v-6.193zm0 6.193A7.355 7.355 0 0 0 7.355 24v-2.323a5.03 5.03 0 0 1-5.032-5.032zM7.355 24h9.29v-2.323h-9.29zm9.29 0A7.355 7.355 0 0 0 24 16.645h-2.323a5.03 5.03 0 0 1-5.032 5.032zM24 16.645v-6.193h-2.323v6.193zM2.323 10.452V7.355H0v3.097zm0-3.097a5.03 5.03 0 0 1 5.032-5.032V0A7.355 7.355 0 0 0 0 7.355zm5.032-5.032H12V0H7.355zM24 10.452V7.355h-2.323v3.097zm0-3.097A7.355 7.355 0 0 0 16.645 0v2.323a5.03 5.03 0 0 1 5.032 5.032zM16.645 0H12v2.323h4.645z"/></g><defs><clipPath id="a"><path fill="#fff" d="M0 0h24v24H0z"/></clipPath></defs></svg>