<svg xmlns="http://www.w3.org/2000/svg" width="20" height="25" fill="none"><path fill="#333" fill-rule="evenodd" d="M1 2.247a1 1 0 0 1 1 1v18.289a.994.994 0 0 0 1.011.967H17.25V7a.5.5 0 0 0-.5-.5H16a1 1 0 1 1 0-2h.75a2.5 2.5 0 0 1 2.5 2.5v15.547a2 2 0 0 1-2.021 1.956H3.037A2.994 2.994 0 0 1 0 21.566V3.246a1 1 0 0 1 1-.999" clip-rule="evenodd"/><path fill="#333" fill-rule="evenodd" d="M3.25 2a1.25 1.25 0 0 0 0 2.5h12.5v-2a.5.5 0 0 0-.5-.5zM.953.95A3.25 3.25 0 0 1 3.25 0h12a2.5 2.5 0 0 1 2.5 2.5v3a1 1 0 0 1-1 1H3.25A3.25 3.25 0 0 1 .953.95M4.043 11.543a1 1 0 0 1 1.414 0l2.25 2.25a1 1 0 0 1 0 1.414l-2.25 2.25a1 1 0 0 1-1.414-1.414L5.586 14.5l-1.543-1.543a1 1 0 0 1 0-1.414M8.837 14.5a1 1 0 0 1 1-1h3.913a1 1 0 1 1 0 2H9.837a1 1 0 0 1-1-1" clip-rule="evenodd"/></svg>