<svg xmlns="http://www.w3.org/2000/svg" width="34" height="33" fill="none"><path fill="#333" fill-rule="evenodd" d="M17 2.387c-8.048 0-14.571 6.411-14.571 14.32 0 6.235 4.054 11.54 9.714 13.507v-2.767c-1.629-.04-3.063-1.08-3.58-2.605a1.45 1.45 0 0 0-1.376-.974H6.68c-.671 0-1.215-.534-1.215-1.194s.544-1.193 1.215-1.193h.508c1.67 0 3.151 1.05 3.68 2.606.186.551.693.932 1.276.971v-.938c0-.733.137-1.457.402-2.135-1.403-.46-2.65-1.137-3.633-1.994-1.337-1.164-2.233-2.709-2.233-4.476 0-1.262.46-2.418 1.214-3.4V8.355c0-.392.195-.758.522-.981a1.23 1.23 0 0 1 1.119-.137l4.087 1.507A14.7 14.7 0 0 1 17 8.356c1.18 0 2.318.136 3.379.387l4.087-1.507c.373-.137.791-.086 1.118.137s.523.59.523.98v3.763c.754.98 1.214 2.137 1.214 3.4 0 1.766-.896 3.31-2.233 4.475-.983.857-2.23 1.534-3.633 1.994.265.678.402 1.402.402 2.135v6.094c5.66-1.966 9.714-7.272 9.714-13.506 0-7.91-6.523-14.321-14.571-14.321m-2.429 29.42c0 .364-.17.71-.46.935a1.23 1.23 0 0 1-1.033.226C5.58 31.228 0 24.609 0 16.708 0 7.48 7.611 0 17 0s17 7.48 17 16.708c0 7.901-5.58 14.52-13.078 16.26a1.23 1.23 0 0 1-1.033-.226 1.19 1.19 0 0 1-.46-.935V24.12c0-.707-.213-1.398-.612-1.986l-.17-.25a1.18 1.18 0 0 1-.111-1.116 1.21 1.21 0 0 1 .88-.715c1.698-.338 3.104-1.014 4.061-1.848.954-.83 1.416-1.767 1.416-2.69 0-.748-.302-1.497-.918-2.197a1.18 1.18 0 0 1-.296-.78v-2.462l-2.805 1.034c-.239.088-.5.1-.746.033-.957-.256-2.013-.4-3.128-.4s-2.171.144-3.128.4a1.23 1.23 0 0 1-.746-.034l-2.805-1.033v2.461c0 .287-.105.565-.296.782-.616.7-.918 1.448-.918 2.196 0 .923.462 1.86 1.416 2.69.957.834 2.363 1.51 4.06 1.849.397.079.727.346.881.714.154.367.112.786-.112 1.117l-.169.249a3.54 3.54 0 0 0-.612 1.986z" clip-rule="evenodd"/></svg>