<svg xmlns="http://www.w3.org/2000/svg" width="69" height="61" fill="none"><mask id="a" width="69" height="61" x="0" y="0" maskUnits="userSpaceOnUse" style="mask-type:luminance"><path fill="#fff" d="M27.072 12.094s-1.495-2.306-4.018-3.427c-2.523-1.122-3.643-1.06-5.319-1.064-1.675-.005-6.447 1.107-8.982 6.146s.312 10.326 2.364 12.055c.893.753 2.448 2.75 7.21 2.836 4.761.087 7.847-4.156 9.809-6.264 2.366-2.542 10.89-13.93 12.41-15.6 3.052-3.357 10.23-8.974 17.491-5.2 7.631 3.966 10.783 9.473 10.046 16.31-.411 3.812-2.46 8.535-3.9 11.109-1.55 2.772-5.795 8.493-7.446 10.4-1.112 1.285-5.432 6.452-10.4 11.11-5.7 5.343-12.056 10.164-12.056 10.164s-4.983-3.118-9.218-6.737c-3.483-2.976-5.747-5.948-6.146-7.21-.385-1.219.65-5.076 3.428-5.318s3.13 1.126 5.436 3.782 5.932 5.235 6.264 5.319 5.158-4.099 7.21-6.146c6.48-6.465 14.597-15.518 17.137-22.928 1.084-3.164 1.373-7.803-1.655-10.164-3.028-2.362-6.773-3.599-10.164-.236-3.39 3.362-10.508 13.875-11.346 15.01s-4.282 6.196-9.928 8.863c-5.645 2.669-11.758 1.711-15.837-.709C5.385 31.775.202 27.393.007 19.54-.193 11.396 3.714 3.378 12.653.748c2.812-.827 8.83-1.403 13 .71 4.172 2.111 6.844 4.612 7.092 5.436s-2.35 3.381-2.718 3.664c-.369.281-1.64 1.447-2.955 1.536"/></mask><g mask="url(#a)"><path fill="#333" d="M94.793-22.534H-14.175V81.47H94.793z"/></g></svg>