<svg xmlns="http://www.w3.org/2000/svg" width="24" height="24" fill="none"><g clip-path="url(#a)"><path fill="#333" stroke="#333" stroke-width=".2" d="M12 .9C18.13.9 23.1 5.87 23.1 12S18.13 23.1 12 23.1.9 18.13.9 12 5.87.9 12 .9Zm2.838 15.165a4.93 4.93 0 0 1-2.838.896 4.94 4.94 0 0 1-2.839-.896L6.02 19.206a9.33 9.33 0 0 0 5.98 2.16 9.32 9.32 0 0 0 5.98-2.16zM4.793 6.02A9.33 9.33 0 0 0 2.635 12c0 2.274.81 4.357 2.158 5.98l3.14-3.142A4.94 4.94 0 0 1 7.04 12c0-1.056.332-2.034.895-2.839zM16.065 9.16c.563.805.896 1.783.896 2.839a4.93 4.93 0 0 1-.896 2.838l3.141 3.142a9.32 9.32 0 0 0 2.16-5.98 9.33 9.33 0 0 0-2.16-5.98zM12 8.774a3.226 3.226 0 1 0 0 6.452 3.226 3.226 0 0 0 0-6.452Zm0-6.14c-2.274 0-4.358.811-5.98 2.159l3.141 3.14A4.94 4.94 0 0 1 12 7.04c1.056 0 2.034.332 2.838.895l3.142-3.141A9.33 9.33 0 0 0 12 2.635Z"/></g><defs><clipPath id="a"><path fill="#fff" d="M0 0h24v24H0z"/></clipPath></defs></svg>