<svg xmlns="http://www.w3.org/2000/svg" width="427" height="421" fill="none"><path fill="#fff" d="M213.824 140.602a20.16 20.16 0 0 0-1.16-8.385 14.25 14.25 0 0 0-5.277-6.217 14.25 14.25 0 0 0-7.821-2.31H65.148a14.15 14.15 0 0 0-14.677 13.899v60.649a14.34 14.34 0 0 0 8.733 13.322c3.75 1.571 8.313 1.07 12.307 1.07H199.71a14.253 14.253 0 0 0 14.107-13.441c.032-.594.007 5.199.007-58.587m-10.923 26.478a8.27 8.27 0 0 1-4.631 5.161c-5.305 2.331-11.375-.29-16.63 2.1a6.144 6.144 0 0 0-2.975 8.395 6.16 6.16 0 0 0 2.212 2.423c5.347 3.237 14.381-1.026 19.547 5.396 2.804 4.012.024 9.2-4.421 10.728a66.4 66.4 0 0 1-18.9.684c-1.122-.116-1.122-1.891 0-1.77a75 75 0 0 0 16.47-.186c4.62-.521 7.708-4.809 5.424-8.422a8.5 8.5 0 0 0-5.354-2.892 48 48 0 0 0-7.073-.402 13.07 13.07 0 0 1-7.124-1.976 7.963 7.963 0 0 1-1.667-11.139 10.43 10.43 0 0 1 7.503-3.559c4.952-.523 12.27 1.526 15.375-3.718a4.725 4.725 0 0 0-1.905-6.381 13.5 13.5 0 0 0-7.452-1.728c-4.474-.014-12.242 1.147-13.721-4.622a9.32 9.32 0 0 1 .792-6.716 9.83 9.83 0 0 1 5.578-4.185c2.5-.664 5.09-.921 7.672-.761 3.02.144 6.031.449 9.032.826 1.121.137 1.121 1.909 0 1.77a65.8 65.8 0 0 0-12.916-.727 11.16 11.16 0 0 0-6.599 2.469 6.545 6.545 0 0 0-.777 8.751c4.685 3.471 13.71-.833 19.731 3.7a6.61 6.61 0 0 1 2.809 6.781m-45.34 18.987c-.35.328 2.211.523-40.732.225a.9.9 0 0 1-.885-.887V145.24a.9.9 0 0 1 .885-.884h40.165a.897.897 0 0 1 .897.884c.285 41.7.164 40.464-.33 40.827M65.873 174.06v-17.502a.9.9 0 0 1 .884-.897h17.49a.895.895 0 0 1 .898.897c.13 18.472.157 17.801-.325 18.16-.332.309 1.068.352-18.052.224a.895.895 0 0 1-.895-.882"/><path fill="#E3F1FF" d="M213.88 260.501a4.46 4.46 0 0 0-5.004-2.594 2.91 2.91 0 0 0-1.95 2.594z"/><path fill="#E3F1FF" d="M245.797 294.378c-2.244-5.513-4.555-10.994-6.833-16.501-1.007 4.937-4.294 6.16-6.857 4.488a7.72 7.72 0 0 1-2.816-3.321 18 18 0 0 1-1.075-4.937l-.417-2.73c-.256 4.692-.66 9.841-5.332 10.373 0 .449-.02.898-.049 1.346a7.78 7.78 0 0 1-5.217 7.268 4.47 4.47 0 0 1-4.198-1.571 10.4 10.4 0 0 1-1.903-3.958c-.583-1.678-1.393-3.273-2.019-4.936a4.17 4.17 0 0 0-2.767-2.839 2.934 2.934 0 0 0-2.953 1.838 6.56 6.56 0 0 0-.642 4.263 8.25 8.25 0 0 1-.065 4.683 6.28 6.28 0 0 1-6.332 3.591 7.15 7.15 0 0 1-5.3-4.872 31.8 31.8 0 0 0-3.097-7.167c-3.285-4.236-10.108-1.487-9.424 3.24a47 47 0 0 0 1.272 4.836c.265 1.122-1.442 1.571-1.707.471a37.6 37.6 0 0 1-1.36-5.545c-.449-5.335 6.263-8.883 10.995-5.609 4.593 3.188 3.792 11.63 8.302 12.79a4.212 4.212 0 0 0 3.7-.797 4.17 4.17 0 0 0 1.555-3.451 18.8 18.8 0 0 1-.318-4.795 7.67 7.67 0 0 1 1.84-3.855 4.4 4.4 0 0 1 3.778-1.346 4.41 4.41 0 0 1 3.312 2.262 22 22 0 0 1 2.02 4.487c1.205 2.76 1.057 3.068 1.725 4.488a3.3 3.3 0 0 0 3.238 2.062 4.72 4.72 0 0 0 2.969-2.621 9.6 9.6 0 0 0 .882-4.288v-.036a6.39 6.39 0 0 1-4.831-4.155c-1.795-5.24-.359-10.407-1.347-15.258h-7.806c-.02.251-.038.495-.061.722a6.14 6.14 0 0 1-2.484 4.865c-3.659 2.405-9.496.363-10.546-5.59h-42.146l16.566 39.631a.897.897 0 0 1-.617 1.091.916.916 0 0 1-1.09-.619l-16.766-40.103s-72.645.023-73.985 0a.88.88 0 0 1-.776-.558.89.89 0 0 1 .179-.938.9.9 0 0 1 .597-.274c6.841-.119-22.439 0 73.244 0l-16.239-38.859a.89.89 0 0 1 .62-1.089.906.906 0 0 1 1.088.617l16.445 39.331h42.714c-.092-9.718 10.517-17.024 20.583-13.569a49.2 49.2 0 0 1 7.773-9.985 91 91 0 0 0-4.757-10.737 19.174 19.174 0 0 0-18.306-8.903H63.261a8.64 8.64 0 0 0-7.378 3.834 8.66 8.66 0 0 0-.743 8.282c.306.721 24.907 59.463 24.907 59.463a53.5 53.5 0 0 0 3.963 8.802 19.03 19.03 0 0 0 15.931 8.527h83.86c21.05-4.375 40.336-5.01 61.65-4.842a8.401 8.401 0 0 0 .346-6.997m-136.333-19.223h20.327a.91.91 0 0 1 .853.651c.24.615 4.039 10.369 5.695 14.632a.7.7 0 0 1-.323.927c-.323.278 1.398.512-20.857.193a.915.915 0 0 1-.855-.649l-5.692-14.632a.89.89 0 0 1 .154-.767.9.9 0 0 1 .698-.355m11.101-29.394a.785.785 0 0 1-.759.482H92.115a.9.9 0 0 1-.698-.354.9.9 0 0 1-.155-.768s4.69-12.745 6.442-18.061a.91.91 0 0 1 1.122-.599c.225.07 21.451 18.07 21.629 18.297a.72.72 0 0 1 .11.994zm76.177-1.468c-3.034 8.897-21.99 5.733-26.451-4.072a6.9 6.9 0 0 1-.07-5.689 8.15 8.15 0 0 1 4.896-3.843c10.522-3.106 24.288 5.789 21.625 13.595z"/><path fill="#AEFFD3" d="M120.455 244.751c-.175-.224.224.193-21.27-18.088a.9.9 0 0 0-.849-.216.9.9 0 0 0-.632.607c-1.752 5.315-6.442 18.061-6.442 18.061a.897.897 0 0 0 .633 1.09c.083.023 23.708-.045 27.911.029.729.014 1.241-.994.649-1.483M136.339 290.438l-5.695-14.632a.92.92 0 0 0-.853-.651h-20.327a.9.9 0 0 0-.884.898c0 .224 1.515 4.039 5.724 14.854a.91.91 0 0 0 .855.649c21.766.312 20.522.094 20.857-.193a.705.705 0 0 0 .323-.925M219.815 286.004a4.733 4.733 0 0 1-2.968 2.621 3.29 3.29 0 0 1-3.238-2.062c-.709-1.512-.317-1.268-1.728-4.488a22 22 0 0 0-2.02-4.487 5.04 5.04 0 0 0-3.516-2.316c-2.93-.276-4.936 2.423-5.412 5.255a18.8 18.8 0 0 0 .325 4.804 4.22 4.22 0 0 1-1.55 3.44 4.198 4.198 0 0 1-3.687.808c-4.488-1.145-3.747-9.62-8.302-12.79-4.762-3.305-11.43.294-10.995 5.609a37.6 37.6 0 0 0 1.36 5.545c.265 1.108 1.972.64 1.705-.471a46 46 0 0 1-1.27-4.836c-.691-4.698 5.967-7.371 9.305-3.366a29.6 29.6 0 0 1 3.205 7.302 7.15 7.15 0 0 0 5.3 4.871 6.29 6.29 0 0 0 6.332-3.59 8.26 8.26 0 0 0 .065-4.683 6.56 6.56 0 0 1 .642-4.263 2.93 2.93 0 0 1 2.953-1.838 4.17 4.17 0 0 1 2.766 2.839c.629 1.662 1.436 3.258 2.02 4.936a10.4 10.4 0 0 0 1.903 3.958 4.47 4.47 0 0 0 4.198 1.571 6.02 6.02 0 0 0 3.639-2.632 10.16 10.16 0 0 0 1.627-5.975 5.7 5.7 0 0 1-1.768-.065v.035a9.55 9.55 0 0 1-.891 4.268M191.188 233.594c-6.328-4.231-17.424-5.533-20.967.929a6.92 6.92 0 0 0 .07 5.689c4.488 9.839 23.43 12.931 26.451 4.072 1.483-4.342-2.199-8.446-5.554-10.69M148.963 116.678c-3.142-5.744-10.813-18.575-11.285-19.367a.89.89 0 0 0-.764-.426.9.9 0 0 0-.764.426c-3.347 5.632-10.826 18.568-11.284 19.367a.9.9 0 0 0 .006.882.89.89 0 0 0 .759.451h22.567a.92.92 0 0 0 .743-.459.92.92 0 0 0 .022-.874M156.998 144.345h-40.165a.896.896 0 0 0-.884.884v40.165a.9.9 0 0 0 .884.887c41.857.298 40.473.161 40.838-.319.332-.35.525 2.206.225-40.737a.9.9 0 0 0-.269-.624.9.9 0 0 0-.629-.256M84.248 155.683H66.757a.9.9 0 0 0-.884.898v17.502a.897.897 0 0 0 .884.884c18.485.132 17.798.152 18.155-.317.316-.334.359 1.1.224-18.058a.9.9 0 0 0-.888-.909M195.032 103.85a15.044 15.044 0 0 0-18.02 6.68 15 15 0 0 0-1.984 6.595.897.897 0 0 0 .884.897h28.263a.84.84 0 0 0 .85-.542.8.8 0 0 0 .048-.355 15.18 15.18 0 0 0-10.041-13.275M179.446 186.319a13.07 13.07 0 0 0 7.124 1.976c2.364-.04 4.728.095 7.073.402a8.5 8.5 0 0 1 5.354 2.892c2.288 3.622-.819 7.903-5.424 8.422-5.466.667-10.99.73-16.47.186-1.122-.121-1.122 1.654 0 1.77a66.4 66.4 0 0 0 18.9-.684c4.448-1.526 7.225-6.716 4.421-10.728-5.161-6.397-14.262-2.181-19.547-5.41a6.14 6.14 0 0 1-2.223-2.419 6.133 6.133 0 0 1 2.986-8.399c5.255-2.389 11.325.225 16.63-2.1a8.26 8.26 0 0 0 4.631-5.161 6.61 6.61 0 0 0-2.8-6.756c-5.92-4.456-15.153-.31-19.731-3.7a6.54 6.54 0 0 1 .777-8.751 11.15 11.15 0 0 1 6.599-2.468 65.8 65.8 0 0 1 12.915.727c1.122.139 1.122-1.634 0-1.771a126 126 0 0 0-9.031-.826 24.1 24.1 0 0 0-7.672.761 9.83 9.83 0 0 0-5.587 4.174 9.32 9.32 0 0 0-.801 6.707c1.479 5.769 9.247 4.608 13.721 4.622a13.5 13.5 0 0 1 7.452 1.728 4.73 4.73 0 0 1 1.905 6.381c-3.105 5.244-10.423 3.196-15.375 3.718a11.2 11.2 0 0 0-6.862 2.796 7.96 7.96 0 0 0-2.173 6.189 7.97 7.97 0 0 0 3.208 5.722M156.998 82.935a.9.9 0 0 0 .898-.898V41.872a.9.9 0 0 0-.898-.884h-40.165a.9.9 0 0 0-.884.884v40.165a.9.9 0 0 0 .884.898zm-39.283-1.77V42.77h38.397V81.17l-38.399-.007zM214.522 262.271a8.3 8.3 0 0 0-.642-1.77h-6.956q-.152.88-.206 1.77z"/><path fill="#AEFFD3" d="M193.463 260.501h-42.718l-16.446-39.331a.897.897 0 0 0-1.398-.462.89.89 0 0 0-.309.933l16.248 38.86H75.602a.88.88 0 0 0-.776.558.89.89 0 0 0 .18.938c.156.164.37.263.596.274 1.346.023 73.985 0 73.985 0l16.761 40.114a.906.906 0 0 0 1.089.619.895.895 0 0 0 .617-1.091l-16.571-39.631h42.146a11 11 0 0 1-.166-1.781M198.79 52.34h-17.502a.9.9 0 0 0-.886.886v17.502a.897.897 0 0 0 .886.884c18.496.133 17.796.153 18.155-.316.314-.334.357 1.1.224-18.059a.897.897 0 0 0-.877-.897m-.897 17.49h-15.708V54.125h15.708zM186.422 5.97h-17.491a.9.9 0 0 0-.882.898v17.48a.9.9 0 0 0 .884.886c18.485.132 17.799.153 18.158-.319.312-.33.354 1.102.224-18.056a.896.896 0 0 0-.893-.889M80.496 103.85a15.062 15.062 0 0 0-18.019 6.682 15.05 15.05 0 0 0-1.987 6.593.896.896 0 0 0 .886.897h28.255a.82.82 0 0 0 .648-.245.84.84 0 0 0 .236-.652 15.17 15.17 0 0 0-10.02-13.275"/><path fill="#333" d="M414.686 229.387c-.196 0-.389.034-.584.043a23 23 0 0 0 5.051-4.712 10.9 10.9 0 0 0 2.199-4.815 10.9 10.9 0 0 0-.323-5.283c-2.953-9.199-17.096-15.601-29.989-10.566a83.2 83.2 0 0 0-7.234-23.841c-6.591-13.73-17.893-13.842-22.901-8.215-4.526-12.938-14.951-26.807-26.702-32.984-8.875-4.656-18.546-1.064-18.779 8.647.087-.038.168-.085.258-.121a.88.88 0 0 1 .998.409 21.03 21.03 0 0 0 13.859 10.64.917.917 0 0 1 .648.855 14.12 14.12 0 0 1-6.382 11.594 10.32 10.32 0 0 1-6.801 1.075c.916 7.822 3.2 27.085 3.442 28.894a27.43 27.43 0 0 1 23.074-2.563c18.144 6.189 29.395 26.501 35.303 44.727a134.7 134.7 0 0 0 38.868-.608 9.1 9.1 0 0 0 3.994-1.272 9.1 9.1 0 0 0 3.007-2.919c3.182-6.445-6.499-9.023-11.006-8.985"/><path fill="#fff" d="M390.546 300.944c-.844-8.975-2.143-17.886-3.59-26.774a220 220 0 0 0-7.144-30.996c-5.765-18.241-17.372-38.611-35.303-44.727-13.51-4.609-26.792 2.12-34.91 13.584-9.151 12.922-9.873 29.52-9.849 44.814a125.5 125.5 0 0 1 9.061 33.483c.75-20.619.525-19.349.411-30.016-.26-24.254-.406-25.959.157-30.772a24.55 24.55 0 0 1 7.818-15.223 23.1 23.1 0 0 1 16.096-6.061 23.1 23.1 0 0 1 15.827 6.735c9.267 9.289 10.618 21.958 10.394 35.078-.449 26.511-5.249 54.508-8.02 63.712a44.77 44.77 0 0 1-13.508 21.494c-8.181 6.577-19.111 8.053-29.339 7.483-25.304-1.411-36.099-18.013-47.774-40.925a498 498 0 0 0-15.419-.424c-20.707-.263-40.125.368-61.651 4.842-26.637 5.535-37.878 12.805-42.857 38.334-4.102 21 .027 51.485 18.433 62.254a35.26 35.26 0 0 0 18.777 4.685h156.022c13.207 0 20.702-7.122 23.098-20.013 3.317-17.83-3.626-30.292-12.007-34.509a81.5 81.5 0 0 0 24.683-4.974 36.2 36.2 0 0 0 13.445-8.57c9.974-10.223 8.486-28.328 7.149-42.514m-121.498 55.39c8.751-.332 60.44-1.08 65.969-.976a.885.885 0 0 1 0 1.77c-12.437.2-83.301-.449-114.338 4.894-1.122.191-1.591-1.515-.469-1.708 13.863-2.385 34.746-3.446 48.838-3.98M153.713 350.5a40 40 0 0 1 .584-11.26c.224-1.122 1.92-.644 1.707.469a38.3 38.3 0 0 0-.52 10.791c.096 1.128-1.677 1.117-1.78-.007zM330.532 158.591a20.98 20.98 0 0 1-13.858-10.64.87.87 0 0 0-.999-.409c-6.406 2.558-11.369 11.594-8.863 17.446a11.84 11.84 0 0 0 6.873 5.958 13 13 0 0 0 11.114.094 14.12 14.12 0 0 0 6.379-11.589.9.9 0 0 0-.646-.86"/><path fill="#fff" d="M349.129 214.984a23.11 23.11 0 0 0-31.923-.673 24.55 24.55 0 0 0-7.818 15.222c-1.196 10.196.857 21.57-.568 60.789a124.8 124.8 0 0 0-9.06-33.483c-6.355-15.218-16.224-27.178-32.236-31.863-18.175-5.325-34.869.276-47.029 13.344a48.8 48.8 0 0 0-6.444 8.617c-10.098-3.465-20.673 3.872-20.583 13.568.067 7.122 6.588 10.075 10.712 7.362a6.15 6.15 0 0 0 2.484-4.869c.076-.747.081-1.418.267-2.493a2.92 2.92 0 0 1 1.948-2.594 4.44 4.44 0 0 1 4.667 1.979c2.762 4.421.094 11.15 2.327 17.648a6.14 6.14 0 0 0 6.355 4.191 6.1 6.1 0 0 0 2.586-.825c4.309-2.87 2.179-14.809 3.407-6.788a18 18 0 0 0 1.074 4.937 7.73 7.73 0 0 0 2.817 3.321c2.591 1.683 5.975.384 6.857-4.488.397-2.34.599-4.71.608-7.084l.734-10.656c24.698 46.509 31.62 80.566 68.345 82.615 10.228.57 21.158-.898 29.339-7.484a44.8 44.8 0 0 0 13.508-21.494c2.751-9.13 7.56-36.918 8.02-63.712.219-13.131-1.134-25.8-10.394-35.087M317.36 333.909a35.8 35.8 0 0 0 6.979-3.027.88.88 0 0 1 .968.072.882.882 0 0 1-.071 1.456 32 32 0 0 1-7.404 3.206.894.894 0 0 1-.987-1.287.88.88 0 0 1 .515-.42m-86.034-82.635a6.58 6.58 0 0 0-1.806 4.198c-.056 1.136-1.824 1.138-1.771 0a8.5 8.5 0 0 1 2.325-5.45c.779-.83 2.029.426 1.252 1.252m-8.874-3.258a5.5 5.5 0 0 0-2.843 2.76c-.483 1.032-2.02.125-1.528-.898a7.32 7.32 0 0 1 3.893-3.577c1.05-.417 1.499 1.279.469 1.715z"/><path fill="#333" d="M406.249 418.745c-1.533-1.683-45.102-51.27-45.138-51.302a.88.88 0 0 0-.971-.206.89.89 0 0 0-.541.832 58.41 58.41 0 0 0 45.788 52.157.9.9 0 0 0 .976-.425.9.9 0 0 0 .117-.547.9.9 0 0 0-.231-.509M279.257 91.812l-23.17 23.488c-.801.813.449 2.065 1.252 1.253l23.17-23.49c.801-.812-.451-2.064-1.252-1.251M296.524 125.232a.895.895 0 0 0 .541-1.469.9.9 0 0 0-.541-.304H256.79a.899.899 0 0 0-.542 1.469c.139.162.331.27.542.304 18.141.316 30.577.157 39.734 0M255.849 134.01a947 947 0 0 0 23.408 23.336.886.886 0 0 0 1.252-1.252 933 933 0 0 0-23.408-23.336.883.883 0 0 0-1.223.028.885.885 0 0 0-.029 1.224M35.738 265.585H.838a.89.89 0 0 0-.775.558.89.89 0 0 0 .179.939c.157.164.37.262.597.274h34.899a.89.89 0 0 0 .775-.558.89.89 0 0 0-.178-.939.9.9 0 0 0-.597-.274M35.112 272.678 4.189 303.601a.884.884 0 0 0 .635 1.482.89.89 0 0 0 .617-.23c8.16-7.885 28.677-28.6 30.92-30.923a.886.886 0 0 0-1.25-1.252M41.332 273.596v31.762a.883.883 0 0 0 .886.841.885.885 0 0 0 .884-.841v-31.762a.88.88 0 0 0-.886-.842.884.884 0 0 0-.885.842"/><path fill="#fff" d="M42.3 127.458v83.007a.88.88 0 0 0 .885.841.88.88 0 0 0 .886-.841v-83.007a.887.887 0 1 0-1.772 0z"/><path fill="#AEFFD3" d="M45.516 225.355c-.422-1.046-2.134-.588-1.707.469l30.84 76.561c.421 1.043 2.131.587 1.705-.472a100647 100647 0 0 0-30.838-76.558M139.57 27.063c-1.53-2.787-13.613-23.384-14.206-24.382a.9.9 0 0 0-1.528 0 6949 6949 0 0 0-14.206 24.382.897.897 0 0 0 .763 1.333h28.412a.917.917 0 0 0 .861-.895.9.9 0 0 0-.098-.438z"/><path fill="#333" d="M106.325 2.035A938 938 0 0 0 84.03 24.33a.889.889 0 0 0 1.252 1.252l22.295-22.304a.885.885 0 0 0-1.252-1.252zM76.05 2.026a.9.9 0 0 0 0-1.252.897.897 0 0 0-1.251 0C69.4 4.952 57.245 14.28 56.623 14.836c-.922.976.584 1.795 1.217 2.273l16.956 13.124a.91.91 0 0 0 1.253 0 .885.885 0 0 0 0-1.252L58.634 15.502zM340.584 28.981a.894.894 0 0 0 0 1.252.9.9 0 0 0 1.252 0c5.399-4.178 17.552-13.506 18.176-14.064.922-.976-.584-1.784-1.217-2.273L341.836.774a.906.906 0 0 0-1.252 0 .88.88 0 0 0-.193.965q.068.162.193.287l17.415 13.476z"/><path fill="#AEFFD3" d="M312.985 3.11a11.378 11.378 0 1 0 2.042 20.419 11.35 11.35 0 0 0 5.432-10.856 11.345 11.345 0 0 0-7.474-9.563"/><path fill="#333" d="M50.47 198.238a14.36 14.36 0 0 0 8.734 13.322c3.754 1.557 8.313 1.07 12.307 1.07H199.71a14.28 14.28 0 0 0 14.107-13.441c.097-1.893.016 1.892.016-58.587a20.3 20.3 0 0 0-1.16-8.385 14.28 14.28 0 0 0-13.098-8.527H65.145a14.18 14.18 0 0 0-13.467 8.441 14.2 14.2 0 0 0-1.207 5.455c0 .227.287-1.514 0 60.652m1.771-60.402a12.434 12.434 0 0 1 13.015-12.373h134.183a12.566 12.566 0 0 1 11.347 6.868 17.4 17.4 0 0 1 1.279 8.199s.042 52.195 0 57.968a12.457 12.457 0 0 1-12.341 12.362c-145.61.763-135.352.213-138.19-.384a12.52 12.52 0 0 1-9.28-12.238c-.022-6.59-.017-59.88-.013-60.402M91.897 246.205c.157.043 18.774-.139 27.911.029.725.014 1.239-.994.647-1.483-.184-.224.224.193-21.272-18.088a.9.9 0 0 0-.85-.22.9.9 0 0 0-.631.611c-1.75 5.315-6.44 18.061-6.44 18.061a.896.896 0 0 0 .635 1.09m7.064-17.419 18.442 15.673H93.369zM130.646 275.806a.92.92 0 0 0-.855-.651h-20.327a.9.9 0 0 0-.884.898c0 .224 1.506 4.014 5.724 14.854a.9.9 0 0 0 .323.463.9.9 0 0 0 .532.188c21.766.316 20.523.09 20.868-.195a.696.696 0 0 0 .321-.927c-.101-.233-5.56-14.262-5.702-14.63m-14.879 13.982-5.006-12.86h18.436l5.006 12.86zM196.744 244.284c1.413-4.362-2.199-8.446-5.556-10.689-6.337-4.239-17.424-5.534-20.967.929a6.8 6.8 0 0 0 .07 5.688c4.2 9.648 23.24 13.032 26.453 4.072m-25.277-7.974a5.3 5.3 0 0 1 3.267-3.602c8.253-3.655 22.593 4.039 20.3 11.105-2.273 6.348-17.264 4.753-22.394-2.986a6.09 6.09 0 0 1-1.173-4.517M137.679 97.311a.91.91 0 0 0-.815-.415.9.9 0 0 0-.756.514c-.619.99-2.751 4.712-11.237 19.268a.898.898 0 0 0 .763 1.333h22.564a.91.91 0 0 0 .813-.609.9.9 0 0 0 .051-.354c-.018-.338.691.983-11.383-19.737m-10.506 18.93 9.743-16.724 9.738 16.724z"/><path fill="#333" d="M116.829 186.285c28.676.211 37.048.202 39.577.052 1.095-.063 1.418-.099 1.501-1.163.162-2.051.182-9.763-.022-39.94a.9.9 0 0 0-.898-.885h-40.165a.9.9 0 0 0-.884.885v40.165a.9.9 0 0 0 .891.886m.897-40.165h38.388v38.395h-38.399zM66.757 174.945c18.438.134 17.78.159 18.155-.319.312-.33.35 1.102.224-18.056a.897.897 0 0 0-.884-.898H66.757a.9.9 0 0 0-.884.898v17.502a.9.9 0 0 0 .884.873m.886-17.503h15.718v15.721H67.643zM189.142 103.026a15.07 15.07 0 0 0-14.11 14.099.896.896 0 0 0 .886.897h28.257a.82.82 0 0 0 .656-.242.84.84 0 0 0 .242-.655 15.04 15.04 0 0 0-5.044-10.352 15.03 15.03 0 0 0-10.887-3.747m2.692 1.872a13.24 13.24 0 0 1 11.343 11.343h-26.253a13.3 13.3 0 0 1 1.679-4.89 13.26 13.26 0 0 1 8.071-6.139 13.2 13.2 0 0 1 5.16-.314M185.282 171.621a11.2 11.2 0 0 0-6.862 2.796 7.973 7.973 0 0 0 1.026 11.893 13.2 13.2 0 0 0 7.124 1.977 46.6 46.6 0 0 1 7.073.401 8.48 8.48 0 0 1 5.354 2.893c2.288 3.621-.819 7.9-5.424 8.421a72 72 0 0 1-16.47.186c-1.122-.121-1.122 1.651 0 1.77a66.4 66.4 0 0 0 18.9-.684c4.459-1.528 7.228-6.716 4.421-10.728-4.295-5.336-11.377-3.285-17.018-4.42a6.21 6.21 0 0 1-5.352-5.235 6.2 6.2 0 0 1 3.586-6.573 15.8 15.8 0 0 1 7.21-1.095c3.177.385 6.4.041 9.424-1.005a8.15 8.15 0 0 0 4.631-5.161 6.68 6.68 0 0 0-2.8-6.756c-5.127-3.59-10.573-1.602-16.198-2.419a5.386 5.386 0 0 1-5.032-7.422 5.4 5.4 0 0 1 2.276-2.617 11.16 11.16 0 0 1 6.599-2.468 63.3 63.3 0 0 1 12.916.727c1.122.139 1.122-1.634 0-1.77q-4.501-.577-9.032-.826a25 25 0 0 0-7.671.76 9.96 9.96 0 0 0-5.592 4.19 9.3 9.3 0 0 0-.801 6.707c1.463 5.773 9.247 4.609 13.721 4.622a23 23 0 0 1 3.128.209c5.697.673 8.042 4.842 6.229 7.9-2.998 5.085-9.747 3.297-15.366 3.727M66.757 72.178h17.49a.92.92 0 0 0 .867-.96c-.02-.321.514.652-8.848-15.382a.898.898 0 0 0-1.528 0c-2.553 4.38-8.383 14.387-8.75 15.009a.898.898 0 0 0 .769 1.333m8.75-14.136 7.206 12.365H68.298zM115.945 41.886V82.05a.896.896 0 0 0 .884.898c28.346.19 36.857.197 39.512.033 1.279-.079 1.51-.135 1.588-1.301.153-2.244.189-10.244-.044-39.789a.9.9 0 0 0-.898-.884h-40.165a.9.9 0 0 0-.877.878m1.77.886h38.399v38.4h-38.399zM180.408 53.226v17.502a.903.903 0 0 0 .887.884c18.447.137 17.791.157 18.155-.316.316-.337.372 1.1.224-18.059a.9.9 0 0 0-.897-.886h-17.489a.897.897 0 0 0-.88.875m1.771.886h15.714V69.82h-15.707zM168.933 25.234c18.445.135 17.79.157 18.153-.319.314-.33.35 1.102.225-18.056a.9.9 0 0 0-.898-.886h-17.48a.9.9 0 0 0-.884.895v17.48a.9.9 0 0 0 .884.886m.884-17.49h15.721v15.729h-15.721zM60.49 117.125a.896.896 0 0 0 .886.897c30.218.153 28.374.052 28.66-.101a.73.73 0 0 0 .479-.785 15.036 15.036 0 0 0-15.012-14.213 15.03 15.03 0 0 0-15.011 14.213v-.011zm16.81-12.227a13.24 13.24 0 0 1 11.343 11.343H62.39a13.24 13.24 0 0 1 9.75-11.029 13.2 13.2 0 0 1 5.16-.314"/><path fill="#333" d="M414.686 229.387c-.196 0-.389.034-.586.043a23 23 0 0 0 5.053-4.712 10.98 10.98 0 0 0 1.876-10.097c-3.02-9.2-17.096-15.602-29.989-10.567a84.9 84.9 0 0 0-7.234-23.841c-2.978-6.117-8.107-12.153-15.55-11.668a10.36 10.36 0 0 0-7.351 3.465c-5.222-14.929-15.869-27.059-26.702-32.985-9.063-4.569-18.55-1.046-18.779 8.648a15.5 15.5 0 0 0-7.531 7.42 11.5 11.5 0 0 0-1.074 9.904 11.81 11.81 0 0 0 6.873 5.958 19.6 19.6 0 0 0 4.312 1.169l3.442 28.894a38.9 38.9 0 0 0-11.836 11.022c-9.2 12.882-9.873 29.52-9.848 44.814-6.211-15.231-16.416-27.15-32.236-31.862a44.62 44.62 0 0 0-45.7 11.975l-2.953-6.996c-3.564-9.11-10.95-13.127-20.11-12.644H63.274a8.66 8.66 0 0 0-8.123 12.116c30.068 71.804 27.073 65.099 28.863 68.277a18.99 18.99 0 0 0 15.932 8.526h83.862c-26.576 5.525-37.778 12.667-42.858 38.335-4.068 21.139-.069 51.117 18.433 62.253a36 36 0 0 0 18.777 4.685h156.023c13.207 0 20.701-7.122 23.098-20.013 3.339-17.95-3.689-30.314-12.007-34.508a81 81 0 0 0 24.682-4.975 37.1 37.1 0 0 0 13.443-8.569c9.965-10.472 8.527-28.048 7.156-42.508-.844-8.975-2.078-17.894-3.59-26.773a219.5 219.5 0 0 0-7.145-30.997 136.1 136.1 0 0 0 38.866-.608 9.18 9.18 0 0 0 7.004-4.192c3.184-6.449-6.496-9.027-11.004-8.989m-99.599-59.812a11.47 11.47 0 0 1-6.253-4.488 8.74 8.74 0 0 1 .078-8.078 14.92 14.92 0 0 1 6.631-7.463 22.6 22.6 0 0 0 13.849 10.535 12.057 12.057 0 0 1-4.593 8.785c-2.72 2.32-6.539 1.672-9.712.709m-70.399 56.173a44.58 44.58 0 0 1 42.266 13.481 60.6 60.6 0 0 1 9.853 15.312c7.321 15.999 9.565 29.224 11.632 46.174a.885.885 0 0 0 1.77 0c1.14-29.98.958-24.415.563-61.345-.067-6.258 0-12.655 3.193-18.236a21.54 21.54 0 0 1 13.127-10.31 21.554 21.554 0 0 1 16.553 2.147c10.546 6.409 13.712 18.815 14.08 31.082a301.8 301.8 0 0 1-6.209 62.155c-4.31 21.066-14.775 33.93-36.272 34.834a53.5 53.5 0 0 1-19.391-2.531c-15.615-5.385-24.135-19.679-31.863-34.522-8.672-16.647-20.246-41.992-23.592-47.287a.89.89 0 0 0-.989-.379.9.9 0 0 0-.662.828c-.182 3.574-1.028 14.39-1.122 16.232a29 29 0 0 1-.406 4.198c-.362 1.867-1.571 4.661-3.932 3.42-2.733-1.432-2.953-4.685-3.366-7.365l-1.837-12.02c-.164-1.073-1.634-.673-1.739.224-.552 4.641.415 12.189-1.656 16.538-1.508 2.773-5.857 1.671-6.97-.934-2.468-6.902 1.268-17.17-4.907-20.612a5.75 5.75 0 0 0-4.775-.525 4.97 4.97 0 0 0-2.917 4.277c-.247 1.757 0 3.994-1.369 5.349a4.7 4.7 0 0 1-4.326.943c-3.904-1.062-4.712-5.834-3.882-9.22a13.913 13.913 0 0 1 18.436-8.888.9.9 0 0 0 1.212-.317 47.73 47.73 0 0 1 29.497-22.703m1.109 68.631-6.833-16.502c.397-2.34.599-4.71.608-7.084l.734-10.656c2.172 4.089 19.78 40.139 20.572 41.689-5.143-.224-10.297-.334-15.42-.424a8.47 8.47 0 0 0 .339-7.023m-31.919-33.883h-6.956a2.925 2.925 0 0 1 1.948-2.594 4.47 4.47 0 0 1 5.008 2.599zM99.89 304.476a17.14 17.14 0 0 1-15.555-9.803c-.112-.236-27.772-66.419-27.846-66.643a6.964 6.964 0 0 1 3.9-8.424c1.959-.821-6.404-.525 138.578-.525a17.28 17.28 0 0 1 17.696 10.194c.112.258 3.13 7.405 3.814 9.047a48.8 48.8 0 0 0-6.444 8.615c-9.947-3.416-20.675 3.778-20.583 13.568h-42.705l-16.443-39.328a.915.915 0 0 0-1.091-.619.9.9 0 0 0-.619 1.09l16.245 38.857H75.602a.89.89 0 0 0-.777.557.89.89 0 0 0 .178.94.9.9 0 0 0 .6.274c1.345.022 73.984 0 73.984 0l16.757 40.109a.9.9 0 0 0 1.09.619.896.896 0 0 0 .62-1.091l-16.573-39.631h42.148c1.039 5.882 6.84 8.029 10.546 5.59a6.116 6.116 0 0 0 2.484-4.869c.023-.225.061-.721.061-.721h7.804c.295 1.52.423 3.067.384 4.614-.054 3.366-.236 9.453 1.777 12.224a6.54 6.54 0 0 0 4.014 2.583 9.6 9.6 0 0 1-.884 4.322 4.73 4.73 0 0 1-2.968 2.621 3.29 3.29 0 0 1-3.236-2.063c-.3-.635-.542-1.297-.723-1.976-.561-1.712-.96-2.215-1.683-4.241-.897-2.527-2.199-4.645-4.858-5.078-2.928-.276-4.936 2.421-5.412 5.255a19.3 19.3 0 0 0 .323 4.788 4.206 4.206 0 0 1-3.298 4.282c-.64.14-1.304.128-1.939-.034-4.454-1.138-3.754-9.593-8.302-12.79-4.811-3.307-11.428.292-10.995 5.61.312 1.88.767 3.733 1.36 5.544.26 1.093 1.918.649 1.71-.431-.023-.338-.584-1.505-1.275-4.876-.7-4.77 6.166-7.451 9.424-3.24a31.8 31.8 0 0 1 3.097 7.167 7.21 7.21 0 0 0 5.3 4.872 6.324 6.324 0 0 0 6.332-3.591 8.23 8.23 0 0 0 .065-4.682 6.84 6.84 0 0 1 .64-4.264 2.93 2.93 0 0 1 2.955-1.838 4.17 4.17 0 0 1 2.766 2.839c.55 1.45 1.446 3.281 2.02 4.936.345 1.441.994 2.79 1.903 3.959a4.48 4.48 0 0 0 4.198 1.57 6.02 6.02 0 0 0 3.637-2.632 10.04 10.04 0 0 0 1.629-5.975 5.3 5.3 0 0 0 2.341-.855c3.473-2.316 3.002-9.929 3.002-9.929.162 2.744.66 5.457 1.483 8.078a7.84 7.84 0 0 0 2.814 3.321 4.036 4.036 0 0 0 6-1.926v-.022l5.973 14.424a7.16 7.16 0 0 1-.617 6.531 294 294 0 0 0-49.881 3.095c-121.225 0-87.623.011-93.704 0zm282.715-43.827a323 323 0 0 1 6.956 50.772c.408 7.941.382 16.604-2.899 24.025-7.562 16.207-29.915 19.71-47.794 20.053a.9.9 0 0 0-.599.274.896.896 0 0 0 0 1.223.9.9 0 0 0 .599.274c8.14-.169 14.246 8.199 16.212 15.341a44.5 44.5 0 0 1 1.122 12.66 34.9 34.9 0 0 1-4.069 15.363 18.42 18.42 0 0 1-13.885 8.931c-3.332.26-6.673.204-10.016.186-29.016-.155-124.425.088-151.131-.166-8.661-.083-16.273-2.244-23.004-9.231a41.4 41.4 0 0 1-8.751-14.839 78.23 78.23 0 0 1 .976-53.213 31.953 31.953 0 0 1 19.266-19.01 83 83 0 0 1 12.906-4.057c29.709-6.747 53.418-6.731 83.337-5.524 11.191 21.783 22.408 37.894 46.814 39.043 10.221.658 21.119-.956 29.339-7.483a44.77 44.77 0 0 0 13.508-21.494c2.78-9.292 7.562-37.085 8.019-63.712.225-13.268-1.068-25.612-10.393-35.079a23.194 23.194 0 0 0-31.924-.673 24.8 24.8 0 0 0-7.817 15.222 68.4 68.4 0 0 0-.384 9.831c.366 34.129.583 29.866-.184 50.958a126.8 126.8 0 0 0-7.275-29.04c-.031-10.771-.172-21.766 2.469-32.312 3.307-13.239 12.341-26.547 26.423-29.679 15.077-3.355 28.212 8.369 36.104 19.889 8.473 12.357 12.963 26.942 16.075 41.467m41.808-23.884c-.712 2.854-3.931 3.671-6.44 4.142a137.2 137.2 0 0 1-38.756.427c-5.877-17.484-17.253-36.934-34.704-42.887a27.18 27.18 0 0 0-21.438 1.665c-.076-.59-2.306-19.161-3.305-27.86a9.15 9.15 0 0 0 5.029-1.212 14.106 14.106 0 0 0 6.379-11.589.901.901 0 0 0-.648-.855 21.31 21.31 0 0 1-13.333-9.723 9.2 9.2 0 0 1 3.46-8.392 12.44 12.44 0 0 1 12.529.011c10.879 5.857 21.719 18.377 26.61 33.687a.9.9 0 0 0 1.618.211c3.141-5.327 10.338-5.039 14.639-1.631a22.74 22.74 0 0 1 6.119 8.136 88.1 88.1 0 0 1 7.322 24.618c.092.623.843.731 1.299.529 10.71-4.642 23.549-.81 28.048 7.854a9.15 9.15 0 0 1-.61 9.076 25.6 25.6 0 0 1-8.349 7.151.892.892 0 0 0 .086 1.522.9.9 0 0 0 .587.096 16.55 16.55 0 0 1 9.016.126c2.129.624 5.542 2.08 4.842 4.894z"/><path fill="#333" d="M335.008 355.358c-27.922-.063-87.456.256-114.807 4.957-1.122.192-.646 1.898.469 1.707a410 410 0 0 1 45.449-3.803c8.713-.355 68.378-1.091 68.887-1.091a.91.91 0 0 0 .859-.536.878.878 0 0 0-.087-.855.89.89 0 0 0-.772-.379zM154.288 339.233a39.9 39.9 0 0 0-.584 11.26c.103 1.122 1.876 1.136 1.771 0a38.3 38.3 0 0 1 .52-10.791c.216-1.113-1.492-1.588-1.707-.469M361.111 367.443a.76.76 0 0 0-.96-.179.717.717 0 0 0-.552.805 58.39 58.39 0 0 0 45.788 52.157.899.899 0 0 0 .859-1.481c-.206-.229-44.94-51.064-45.135-51.302m.595 3.353 41.379 47.031a56.429 56.429 0 0 1-41.379-47.031M317.827 335.619a32 32 0 0 0 7.405-3.207.886.886 0 0 0-.898-1.528 32.4 32.4 0 0 1-6.978 3.027.89.89 0 0 0-.586 1.082.88.88 0 0 0 1.057.626M216.6 26.583a9.3 9.3 0 0 0 6.707.798c5.773-1.463 4.608-9.244 4.624-13.719a12.97 12.97 0 0 1 1.728-7.451 4.73 4.73 0 0 1 6.379-1.908c5.078 3.01 3.285 9.759 3.718 15.375a11.2 11.2 0 0 0 2.796 6.864 7.96 7.96 0 0 0 9.377 1.185 7.9 7.9 0 0 0 2.516-2.21 13.2 13.2 0 0 0 1.976-7.127 46.5 46.5 0 0 1 .402-7.072 8.47 8.47 0 0 1 2.895-5.354c3.624-2.289 7.9.825 8.419 5.423a72 72 0 0 1 .186 16.472c-.121 1.122 1.651 1.122 1.773 0a66.7 66.7 0 0 0-.685-18.902c-1.528-4.447-6.709-7.23-10.73-4.42-5.334 4.297-3.289 11.38-4.418 17.017a6.204 6.204 0 0 1-11.807 1.766 15.8 15.8 0 0 1-1.098-7.207c.384-3.177.041-6.4-1.003-9.425a8.19 8.19 0 0 0-5.16-4.63 6.69 6.69 0 0 0-6.757 2.802c-3.59 5.125-1.602 10.573-2.419 16.198a6.57 6.57 0 0 1-1.279 3.53 6.54 6.54 0 0 1-8.751-.774 11.15 11.15 0 0 1-2.468-6.6 64 64 0 0 1 .727-12.915c.139-1.122-1.633-1.122-1.77 0q-.577 4.5-.824 9.03c-.148 2.58.108 5.169.759 7.67a9.95 9.95 0 0 0 4.187 5.584M257.342 116.552l23.167-23.488c.801-.812-.448-2.065-1.252-1.252l-23.17 23.488a.9.9 0 0 0-.166.597.895.895 0 0 0 1.421.655M255.935 124.377a.896.896 0 0 0 .854.855h39.735a.895.895 0 0 0 .541-1.469.9.9 0 0 0-.541-.304h-39.735a.895.895 0 0 0-.854.918M257.104 132.749a.898.898 0 0 0-1.255 1.252 965 965 0 0 0 23.408 23.336.9.9 0 0 0 .904.089.897.897 0 0 0 .348-1.343 931 931 0 0 0-23.405-23.334M36.593 266.447a.89.89 0 0 0-.855-.855H.838a.89.89 0 0 0-.775.558.89.89 0 0 0 .179.939c.157.164.37.262.597.274h34.899a.9.9 0 0 0 .855-.916M35.112 272.678 4.189 303.601a.886.886 0 0 0 1.252 1.252c8.163-7.883 28.677-28.6 30.92-30.923a.885.885 0 0 0-.635-1.472.9.9 0 0 0-.614.22M42.187 272.741a.9.9 0 0 0-.858.855v31.762a.89.89 0 0 0 .887.756.897.897 0 0 0 .886-.756v-31.762a.895.895 0 0 0-.915-.855M229.513 255.472a6.57 6.57 0 0 1 1.795-4.198c.783-.828-.467-2.082-1.252-1.252a8.48 8.48 0 0 0-2.325 5.45c-.049 1.138 1.724 1.138 1.782 0M219.611 250.776a5.48 5.48 0 0 1 2.832-2.762c1.041-.427.585-2.141-.469-1.708a7.28 7.28 0 0 0-3.887 3.572c-.498 1.028 1.028 1.928 1.524.898M44.076 210.463v-83.005a.887.887 0 1 0-1.773 0v83.005a.883.883 0 0 0 .887.841.884.884 0 0 0 .884-.841zM45.516 225.355c-.42-1.046-2.131-.59-1.705.469l30.835 76.561c.422 1.043 2.134.588 1.708-.472-42.196-104.797-27.667-68.83-30.84-76.558zM110.508 28.378c1.346.047 6.57.013 28.297.013a.916.916 0 0 0 .868-.893.9.9 0 0 0-.103-.44L125.364 2.676a.88.88 0 0 0-.819-.424.89.89 0 0 0-.751.537c-.714 1.135-3.328 5.672-14.157 24.27a.89.89 0 0 0 .026.93.88.88 0 0 0 .845.389m14.091-23.494 12.664 21.73h-25.326zM85.282 25.582l22.295-22.304a.885.885 0 0 0-1.252-1.252L84.03 24.323a.89.89 0 0 0 .065 1.311.883.883 0 0 0 1.187-.061zM42.972 28.234a.897.897 0 0 0 .855-.855V3.828a.886.886 0 0 0-1.77 0v23.56a.885.885 0 0 0 .915.846M57.842 17.109l16.957 13.124a.91.91 0 0 0 1.252 0 .883.883 0 0 0 0-1.252L58.634 15.502c1.057-.816 16.38-12.682 17.417-13.476a.9.9 0 0 0 0-1.252.9.9 0 0 0-1.252 0C69.4 4.952 57.245 14.28 56.623 14.836c-.92.976.58 1.784 1.219 2.273M357.999 15.502l-17.415 13.48a.879.879 0 0 0 .626 1.505c.234 0 .459-.09.626-.254 0 0 17.552-13.506 18.176-14.064.924-.976-.582-1.784-1.214-2.273L341.836.774a.906.906 0 0 0-1.252 0 .88.88 0 0 0-.193.965q.068.162.193.287zM311.371 24.96a11.494 11.494 0 0 0 9.126-11.152 11.35 11.35 0 0 0-4.499-9.072 11.366 11.366 0 0 0-14.5.617 11.38 11.38 0 0 0-2.093 14.363 11.5 11.5 0 0 0 11.966 5.244M300.886 8.887a9.61 9.61 0 1 1 16.491 9.87 9.61 9.61 0 0 1-16.491-9.87"/></svg>