<svg xmlns="http://www.w3.org/2000/svg" width="24" height="24" fill="none"><g clip-path="url(#a)"><path fill="#333" d="M12 23.5a1.5 1.5 0 0 0 0-3zm0-20a1.5 1.5 0 0 0 0-3zm-2.5 7a1.5 1.5 0 0 0 0 3zM22 12l1.06 1.06a1.5 1.5 0 0 0 0-2.12zm-2.69-4.81a1.5 1.5 0 0 0-2.12 2.12zm-2.12 7.5a1.5 1.5 0 0 0 2.12 2.12zM12 22v-1.5A8.5 8.5 0 0 1 3.5 12h-3c0 6.351 5.149 11.5 11.5 11.5zM2 12h1.5A8.5 8.5 0 0 1 12 3.5v-3C5.649.5.5 5.649.5 12zm7.5 0v1.5H22v-3H9.5zM22 12l1.06-1.06-3.75-3.75-1.06 1.06-1.06 1.06 3.75 3.75zm0 0-1.06-1.06-3.75 3.75 1.06 1.06 1.06 1.06 3.75-3.75z"/></g><defs><clipPath id="a"><path fill="#fff" d="M0 0h24v24H0z"/></clipPath></defs></svg>