<svg xmlns="http://www.w3.org/2000/svg" width="34" height="34" fill="none"><path fill="#333" fill-rule="evenodd" d="M12 10.333C12 9.597 12.651 9 13.454 9H18c1.591 0 3.117.58 4.243 1.61C23.368 11.643 24 13.042 24 14.5s-.632 2.858-1.757 3.89C21.117 19.42 19.59 20 18 20h-3.09v3.667c0 .736-.652 1.333-1.456 1.333S12 24.403 12 23.667zm2.91 7H18a3.24 3.24 0 0 0 2.186-.83 2.72 2.72 0 0 0 .905-2.003 2.72 2.72 0 0 0-.905-2.004 3.24 3.24 0 0 0-2.186-.83h-3.09z" clip-rule="evenodd"/><path fill="#333" fill-rule="evenodd" d="M4.98 4.98a17 17 0 1 1 24.04 24.04A17 17 0 0 1 4.98 4.98M17 2.775a14.224 14.224 0 1 0 0 28.448 14.224 14.224 0 0 0 0-28.448" clip-rule="evenodd"/></svg>