<svg xmlns="http://www.w3.org/2000/svg" width="25" height="25" fill="none"><path fill="#333" fill-rule="evenodd" d="M8.045 6.444a1.13 1.13 0 0 1 0 1.601L3.412 12.68l4.685 4.685a1.132 1.132 0 0 1-1.6 1.601L1.01 13.48a1.13 1.13 0 0 1 0-1.6l5.434-5.435a1.13 1.13 0 0 1 1.601 0M17.259 6.392a1.13 1.13 0 0 1 1.601 0l5.486 5.486a1.13 1.13 0 0 1 0 1.601l-5.433 5.434a1.132 1.132 0 0 1-1.601-1.601l4.633-4.633-4.686-4.686a1.13 1.13 0 0 1 0-1.601" clip-rule="evenodd"/><path fill="#333" fill-rule="evenodd" d="M1.01 1.01a1.13 1.13 0 0 1 1.601 0l21.736 21.736a1.132 1.132 0 0 1-1.601 1.601L1.01 2.611a1.13 1.13 0 0 1 0-1.6" clip-rule="evenodd"/></svg>