<svg xmlns="http://www.w3.org/2000/svg" width="800" height="800" fill="none" viewBox="0 0 24 24"><path stroke="#333" stroke-linecap="round" stroke-linejoin="round" stroke-width="2" d="M12 10v10m-9-5h18M3 10h18M6.2 20h11.6c1.12 0 1.68 0 2.108-.218a2 2 0 0 0 .874-.874C21 18.48 21 17.92 21 16.8V7.2c0-1.12 0-1.68-.218-2.108a2 2 0 0 0-.874-.874C19.48 4 18.92 4 17.8 4H6.2c-1.12 0-1.68 0-2.108.218a2 2 0 0 0-.874.874C3 5.52 3 6.08 3 7.2v9.6c0 1.12 0 1.68.218 2.108a2 2 0 0 0 .874.874C4.52 20 5.08 20 6.2 20"/></svg>