<svg xmlns="http://www.w3.org/2000/svg" width="800" height="800" fill="none" viewBox="0 0 48 48"><g clip-path="url(#a)"><path fill="#fff" fill-opacity=".01" d="M0 0h48v48H0z"/><path fill="#fff" fill-opacity=".01" d="M48 0H0v48h48z"/><path fill="#00b894" stroke="#333" stroke-linejoin="round" stroke-width="4" d="M13 12a4 4 0 1 0 8 0 4 4 0 0 0-8 0ZM31 24a4 4 0 1 0 8 0 4 4 0 0 0-8 0ZM13 36a4 4 0 1 0 8 0 4 4 0 0 0-8 0Z"/><path stroke="#333" stroke-linecap="round" stroke-width="4" d="M4 36h9M21 36h23M4 12h9M21 12h23"/><path stroke="#333" stroke-linecap="round" stroke-linejoin="round" stroke-width="4" d="M4 4v40"/><path stroke="#333" stroke-linecap="round" stroke-width="4" d="M4 24h27M39 24h5"/></g><defs><clipPath id="a"><path fill="#fff" d="M0 0h48v48H0z"/></clipPath></defs></svg>