<svg xmlns="http://www.w3.org/2000/svg" width="449" height="449" fill="none" viewBox="0 0 449 449"><path fill="#fff" d="M225.287 154.602a20.2 20.2 0 0 0-1.16-8.385 14.26 14.26 0 0 0-13.098-8.527H76.611a14.15 14.15 0 0 0-14.677 13.899v60.649a14.34 14.34 0 0 0 8.733 13.322c3.75 1.571 8.313 1.07 12.307 1.07h128.199a14.253 14.253 0 0 0 14.107-13.441c.032-.594.007 5.199.007-58.587m-10.923 26.478a8.27 8.27 0 0 1-4.632 5.161c-5.304 2.331-11.374-.29-16.629 2.1a6.144 6.144 0 0 0-2.975 8.395 6.15 6.15 0 0 0 2.212 2.423c5.347 3.237 14.381-1.026 19.547 5.396 2.804 4.012.024 9.2-4.421 10.728a66.4 66.4 0 0 1-18.9.684c-1.122-.116-1.122-1.891 0-1.77a75 75 0 0 0 16.47-.186c4.62-.521 7.708-4.809 5.423-8.422a8.5 8.5 0 0 0-5.353-2.892 48 48 0 0 0-7.073-.402 13.07 13.07 0 0 1-7.124-1.976 7.97 7.97 0 0 1-1.668-11.139 10.44 10.44 0 0 1 7.504-3.559c4.952-.523 12.269 1.526 15.375-3.718a4.72 4.72 0 0 0-1.905-6.381 13.5 13.5 0 0 0-7.452-1.728c-4.474-.014-12.243 1.147-13.721-4.622a9.32 9.32 0 0 1 .792-6.716 9.83 9.83 0 0 1 5.578-4.185c2.5-.664 5.09-.921 7.672-.761 3.02.144 6.031.449 9.031.826 1.122.137 1.122 1.909 0 1.77a66 66 0 0 0-12.915-.727 11.16 11.16 0 0 0-6.599 2.469 6.54 6.54 0 0 0-.777 8.751c4.685 3.471 13.71-.833 19.73 3.7a6.61 6.61 0 0 1 2.81 6.781m-45.34 18.987c-.35.328 2.21.523-40.733.225a.9.9 0 0 1-.884-.887V159.24a.9.9 0 0 1 .884-.884h40.166a.9.9 0 0 1 .63.258.9.9 0 0 1 .267.626c.285 41.7.164 40.464-.33 40.827M77.336 188.06v-17.502a.9.9 0 0 1 .884-.897h17.49a.895.895 0 0 1 .898.897c.13 18.472.157 17.801-.325 18.16-.332.309 1.068.352-18.052.224a.895.895 0 0 1-.895-.882"/><path fill="#e3f1ff" d="M225.343 274.501a4.46 4.46 0 0 0-5.004-2.594 2.91 2.91 0 0 0-1.95 2.594z"/><path fill="#e3f1ff" d="M257.26 308.378c-2.244-5.513-4.555-10.994-6.833-16.501-1.007 4.937-4.295 6.16-6.857 4.488a7.7 7.7 0 0 1-2.816-3.321 18 18 0 0 1-1.075-4.937l-.417-2.73c-.256 4.692-.66 9.841-5.332 10.373 0 .449-.02.898-.049 1.346a7.78 7.78 0 0 1-5.217 7.268 4.47 4.47 0 0 1-4.198-1.571 10.4 10.4 0 0 1-1.903-3.958c-.584-1.678-1.394-3.273-2.02-4.936a4.17 4.17 0 0 0-2.766-2.839 2.94 2.94 0 0 0-2.953 1.838 6.56 6.56 0 0 0-.642 4.263 8.26 8.26 0 0 1-.065 4.683 6.28 6.28 0 0 1-6.332 3.591 7.14 7.14 0 0 1-5.3-4.872 31.8 31.8 0 0 0-3.097-7.167c-3.285-4.236-10.108-1.487-9.424 3.24a47 47 0 0 0 1.272 4.836c.265 1.122-1.442 1.571-1.707.471a37.6 37.6 0 0 1-1.36-5.545c-.449-5.335 6.263-8.883 10.995-5.609 4.593 3.188 3.792 11.63 8.302 12.79a4.21 4.21 0 0 0 3.7-.797 4.18 4.18 0 0 0 1.555-3.451 18.8 18.8 0 0 1-.318-4.795 7.67 7.67 0 0 1 1.84-3.855 4.4 4.4 0 0 1 3.778-1.346 4.4 4.4 0 0 1 3.312 2.262 22 22 0 0 1 2.02 4.487c1.205 2.76 1.057 3.068 1.725 4.488a3.3 3.3 0 0 0 3.238 2.062 4.72 4.72 0 0 0 2.969-2.621 9.6 9.6 0 0 0 .882-4.288v-.036a6.39 6.39 0 0 1-4.831-4.155c-1.796-5.24-.359-10.407-1.347-15.258h-7.806c-.02.251-.038.495-.061.722a6.14 6.14 0 0 1-2.484 4.865c-3.659 2.405-9.496.363-10.546-5.59h-42.146l16.566 39.631a.897.897 0 0 1-.617 1.091.916.916 0 0 1-1.09-.619l-16.767-40.103s-72.645.023-73.984 0a.88.88 0 0 1-.776-.558.89.89 0 0 1 .179-.938.9.9 0 0 1 .597-.274c6.841-.119-22.439 0 73.244 0l-16.239-38.859a.89.89 0 0 1 .619-1.089.905.905 0 0 1 1.089.617l16.445 39.331h42.714c-.092-9.718 10.517-17.024 20.583-13.569a49.2 49.2 0 0 1 7.773-9.985 91 91 0 0 0-4.757-10.737 19.18 19.18 0 0 0-18.306-8.903H74.724a8.64 8.64 0 0 0-7.378 3.834 8.66 8.66 0 0 0-.743 8.282c.305.721 24.907 59.463 24.907 59.463a53.5 53.5 0 0 0 3.963 8.802 19.03 19.03 0 0 0 15.931 8.527h83.86c21.05-4.375 40.336-5.01 61.65-4.842a8.4 8.4 0 0 0 .346-6.997m-136.333-19.223h20.327a.91.91 0 0 1 .853.651c.24.615 4.039 10.369 5.695 14.632a.703.703 0 0 1-.323.927c-.323.278 1.398.512-20.857.193a.91.91 0 0 1-.855-.649l-5.693-14.632a.905.905 0 0 1 .463-1.025.9.9 0 0 1 .39-.097m11.1-29.394a.78.78 0 0 1-.758.482h-27.691a.9.9 0 0 1-.698-.354.9.9 0 0 1-.155-.768s4.69-12.745 6.442-18.061a.91.91 0 0 1 .772-.635.9.9 0 0 1 .35.036c.224.07 21.451 18.07 21.629 18.297a.72.72 0 0 1 .109.994zm76.177-1.468c-3.033 8.897-21.989 5.733-26.45-4.072a6.9 6.9 0 0 1-.07-5.689 8.15 8.15 0 0 1 4.896-3.843c10.522-3.106 24.288 5.789 21.624 13.595z"/><path fill="#aeffd3" d="M131.918 258.751c-.176-.224.224.193-21.27-18.088a.91.91 0 0 0-.849-.216.91.91 0 0 0-.632.607c-1.752 5.315-6.442 18.061-6.442 18.061a.895.895 0 0 0 .633 1.09c.083.023 23.708-.045 27.911.029.729.014 1.241-.994.649-1.483m15.884 45.687-5.695-14.632a.92.92 0 0 0-.853-.651h-20.327a.9.9 0 0 0-.884.898c0 .224 1.515 4.039 5.724 14.854a.91.91 0 0 0 .855.649c21.765.312 20.522.094 20.857-.193a.705.705 0 0 0 .323-.925m83.476-4.434a4.7 4.7 0 0 1-1.196 1.637 4.7 4.7 0 0 1-1.773.984 3.29 3.29 0 0 1-3.237-2.062c-.71-1.512-.317-1.268-1.728-4.488a22 22 0 0 0-2.02-4.487 5.04 5.04 0 0 0-3.516-2.316c-2.93-.276-4.936 2.423-5.412 5.255a18.8 18.8 0 0 0 .325 4.804 4.22 4.22 0 0 1-1.55 3.44 4.2 4.2 0 0 1-3.687.808c-4.488-1.145-3.747-9.62-8.302-12.79-4.762-3.305-11.43.294-10.995 5.609a37.6 37.6 0 0 0 1.36 5.545c.264 1.108 1.972.64 1.705-.471a46 46 0 0 1-1.27-4.836c-.691-4.698 5.966-7.371 9.305-3.366a29.6 29.6 0 0 1 3.205 7.302 7.15 7.15 0 0 0 5.3 4.871 6.29 6.29 0 0 0 6.332-3.59 8.26 8.26 0 0 0 .065-4.683 6.55 6.55 0 0 1 .642-4.263 2.93 2.93 0 0 1 2.952-1.838 4.17 4.17 0 0 1 2.767 2.839c.628 1.662 1.436 3.258 2.02 4.936a10.4 10.4 0 0 0 1.902 3.958 4.48 4.48 0 0 0 4.199 1.571 6.02 6.02 0 0 0 3.639-2.632 10.16 10.16 0 0 0 1.627-5.975 5.7 5.7 0 0 1-1.768-.065v.035a9.55 9.55 0 0 1-.891 4.268m-28.627-52.41c-6.328-4.231-17.424-5.533-20.967.929a6.9 6.9 0 0 0 .07 5.689c4.487 9.839 23.43 12.931 26.45 4.072 1.484-4.342-2.199-8.446-5.553-10.69m-42.225-116.916c-3.142-5.744-10.813-18.575-11.285-19.367a.894.894 0 0 0-1.201-.312.9.9 0 0 0-.327.312c-3.348 5.632-10.826 18.568-11.284 19.367a.9.9 0 0 0 .006.882.89.89 0 0 0 .759.451h22.567a.916.916 0 0 0 .765-1.333m8.035 27.667h-40.165a.896.896 0 0 0-.884.884v40.165a.9.9 0 0 0 .884.887c41.857.298 40.473.161 40.838-.319.332-.35.525 2.206.225-40.737a.9.9 0 0 0-.898-.88M95.71 169.683H78.22a.9.9 0 0 0-.884.898v17.502a.897.897 0 0 0 .884.884c18.485.132 17.798.152 18.155-.317.316-.334.359 1.1.224-18.058a.9.9 0 0 0-.888-.909m110.784-51.833a15.047 15.047 0 0 0-20.005 13.275.9.9 0 0 0 .885.897h28.263a.84.84 0 0 0 .658-.24.83.83 0 0 0 .24-.657 15.18 15.18 0 0 0-10.041-13.275m-15.586 82.469a13.07 13.07 0 0 0 7.124 1.976c2.364-.04 4.728.095 7.073.402a8.5 8.5 0 0 1 5.353 2.892c2.289 3.622-.819 7.903-5.423 8.422-5.466.667-10.99.73-16.47.186-1.122-.121-1.122 1.654 0 1.77a66.4 66.4 0 0 0 18.9-.684c4.447-1.526 7.225-6.716 4.421-10.728-5.161-6.397-14.262-2.181-19.547-5.41a6.14 6.14 0 0 1-2.878-5.639 6.13 6.13 0 0 1 3.641-5.179c5.255-2.389 11.325.225 16.629-2.1a8.27 8.27 0 0 0 4.632-5.161 6.61 6.61 0 0 0-2.801-6.756c-5.919-4.456-15.152-.31-19.73-3.7a6.54 6.54 0 0 1 .777-8.751 11.15 11.15 0 0 1 6.599-2.468 66 66 0 0 1 12.915.727c1.122.139 1.122-1.634 0-1.771a126 126 0 0 0-9.031-.826 24.1 24.1 0 0 0-7.672.761 9.83 9.83 0 0 0-5.587 4.174 9.32 9.32 0 0 0-.801 6.707c1.478 5.769 9.247 4.608 13.721 4.622a13.5 13.5 0 0 1 7.452 1.728 4.73 4.73 0 0 1 1.905 6.381c-3.106 5.244-10.423 3.196-15.375 3.718a11.2 11.2 0 0 0-6.862 2.796 7.96 7.96 0 0 0-2.173 6.189 7.96 7.96 0 0 0 3.208 5.722M168.461 96.935a.9.9 0 0 0 .898-.898V55.872a.9.9 0 0 0-.898-.884h-40.165a.9.9 0 0 0-.884.884v40.165a.9.9 0 0 0 .884.898zm-39.283-1.77V56.77h38.397v38.4l-38.399-.007zm96.807 181.106a8.3 8.3 0 0 0-.642-1.77h-6.956a16 16 0 0 0-.206 1.77z"/><path fill="#aeffd3" d="M204.926 274.501h-42.719l-16.445-39.331a.897.897 0 0 0-1.398-.462.89.89 0 0 0-.309.933l16.247 38.86H87.065a.88.88 0 0 0-.776.558.89.89 0 0 0 .18.938c.156.164.37.263.596.274 1.346.023 73.985 0 73.985 0l16.761 40.114a.906.906 0 0 0 1.089.619.894.894 0 0 0 .617-1.091l-16.571-39.631h42.146a11 11 0 0 1-.166-1.781m5.327-208.161h-17.502a.9.9 0 0 0-.886.886v17.502a.897.897 0 0 0 .886.884c18.496.133 17.796.153 18.155-.316.314-.334.357 1.1.224-18.059a.897.897 0 0 0-.877-.897m-.898 17.49h-15.707V68.125h15.707zm-11.47-63.86h-17.491a.9.9 0 0 0-.882.898v17.48a.9.9 0 0 0 .884.886c18.485.132 17.798.153 18.158-.319.311-.33.354 1.102.224-18.056a.895.895 0 0 0-.893-.889M91.959 117.85a15.06 15.06 0 0 0-18.019 6.682 15.05 15.05 0 0 0-1.987 6.593.896.896 0 0 0 .886.897h28.255a.825.825 0 0 0 .837-.546.8.8 0 0 0 .047-.351 15.18 15.18 0 0 0-10.02-13.275"/><path fill="#333" d="M426.148 243.387c-.195 0-.388.034-.583.043a23 23 0 0 0 5.051-4.712 10.9 10.9 0 0 0 2.199-4.815 10.9 10.9 0 0 0-.323-5.283c-2.953-9.199-17.096-15.601-29.989-10.566a83.2 83.2 0 0 0-7.235-23.841c-6.59-13.73-17.892-13.842-22.9-8.215-4.526-12.938-14.951-26.807-26.702-32.984-8.875-4.656-18.546-1.064-18.779 8.647.087-.038.168-.085.258-.121a.875.875 0 0 1 .998.409 21.03 21.03 0 0 0 13.858 10.64.91.91 0 0 1 .649.855 14.13 14.13 0 0 1-6.382 11.594 10.32 10.32 0 0 1-6.801 1.075c.916 7.822 3.2 27.085 3.442 28.894a27.43 27.43 0 0 1 23.074-2.563c18.144 6.189 29.395 26.501 35.303 44.727a134.7 134.7 0 0 0 38.868-.608 9.1 9.1 0 0 0 3.994-1.272 9.1 9.1 0 0 0 3.007-2.919c3.181-6.445-6.499-9.023-11.007-8.985"/><path fill="#fff" d="M402.009 314.944c-.844-8.975-2.143-17.886-3.59-26.774a219.5 219.5 0 0 0-7.145-30.996c-5.764-18.241-17.372-38.611-35.302-44.727-13.511-4.609-26.792 2.12-34.91 13.584-9.151 12.922-9.873 29.52-9.849 44.814a125.5 125.5 0 0 1 9.061 33.483c.75-20.619.525-19.349.411-30.016-.261-24.254-.406-25.959.157-30.772a24.55 24.55 0 0 1 7.817-15.223 23.1 23.1 0 0 1 16.097-6.061 23.1 23.1 0 0 1 15.827 6.735c9.267 9.289 10.618 21.958 10.393 35.078-.448 26.511-5.248 54.508-8.019 63.712a44.77 44.77 0 0 1-13.508 21.494c-8.181 6.577-19.111 8.053-29.339 7.483-25.304-1.411-36.099-18.013-47.774-40.925a498 498 0 0 0-15.42-.424c-20.706-.263-40.124.368-61.65 4.842-26.637 5.535-37.878 12.805-42.858 38.334-4.101 21 .027 51.485 18.434 62.254a35.26 35.26 0 0 0 18.776 4.685h156.023c13.207 0 20.702-7.122 23.098-20.013 3.317-17.83-3.626-30.292-12.007-34.509a81.5 81.5 0 0 0 24.683-4.974 36.2 36.2 0 0 0 13.445-8.57c9.974-10.223 8.486-28.328 7.149-42.514m-121.498 55.39c8.751-.332 60.44-1.08 65.969-.976a.885.885 0 0 1 0 1.77c-12.438.2-83.301-.449-114.338 4.894-1.122.191-1.591-1.515-.469-1.708 13.863-2.385 34.746-3.446 48.838-3.98M165.176 364.5a40 40 0 0 1 .583-11.26c.225-1.122 1.921-.644 1.708.469a38.3 38.3 0 0 0-.521 10.791c.097 1.128-1.676 1.117-1.779-.007zm176.819-191.909a20.98 20.98 0 0 1-13.858-10.64.87.87 0 0 0-.999-.409c-6.406 2.558-11.37 11.594-8.863 17.446a11.84 11.84 0 0 0 6.873 5.958 13 13 0 0 0 11.114.094 14.12 14.12 0 0 0 6.379-11.589.905.905 0 0 0-.646-.86"/><path fill="#fff" d="M360.592 228.984a23.1 23.1 0 0 0-15.827-6.737 23.1 23.1 0 0 0-16.097 6.064 24.55 24.55 0 0 0-7.817 15.222c-1.196 10.196.857 21.57-.568 60.789a124.8 124.8 0 0 0-9.061-33.483c-6.354-15.218-16.223-27.178-32.235-31.863-18.175-5.325-34.87.276-47.029 13.344a48.8 48.8 0 0 0-6.444 8.617c-10.098-3.465-20.673 3.872-20.583 13.568.067 7.122 6.588 10.075 10.712 7.362a6.15 6.15 0 0 0 2.484-4.869c.076-.747.081-1.418.267-2.493a2.92 2.92 0 0 1 1.947-2.594 4.44 4.44 0 0 1 4.668 1.979c2.762 4.421.094 11.15 2.327 17.648a6.13 6.13 0 0 0 3.666 3.82 6.13 6.13 0 0 0 5.275-.454c4.309-2.87 2.179-14.809 3.407-6.788a18 18 0 0 0 1.074 4.937 7.73 7.73 0 0 0 2.816 3.321c2.592 1.683 5.976.384 6.858-4.488.397-2.34.599-4.71.608-7.084l.733-10.656c24.699 46.509 31.621 80.566 68.346 82.615 10.228.57 21.158-.898 29.339-7.484a44.8 44.8 0 0 0 13.508-21.494c2.751-9.13 7.559-36.918 8.019-63.712.22-13.131-1.133-25.8-10.393-35.087m-31.769 118.925a35.8 35.8 0 0 0 6.979-3.027.88.88 0 0 1 .968.072.89.89 0 0 1 .324.915.9.9 0 0 1-.395.541 32 32 0 0 1-7.405 3.206.894.894 0 0 1-1.056-.626.875.875 0 0 1 .585-1.081m-86.034-82.635a6.58 6.58 0 0 0-1.806 4.198c-.056 1.136-1.824 1.138-1.771 0a8.5 8.5 0 0 1 2.325-5.45c.779-.83 2.028.426 1.252 1.252m-8.874-3.258a5.5 5.5 0 0 0-2.843 2.76c-.483 1.032-2.02.125-1.528-.898a7.32 7.32 0 0 1 3.893-3.577c1.05-.417 1.499 1.279.469 1.715z"/><path fill="#333" d="M417.712 432.745c-1.533-1.683-45.102-51.27-45.138-51.302a.88.88 0 0 0-.972-.206.89.89 0 0 0-.54.832 58.41 58.41 0 0 0 45.788 52.157.9.9 0 0 0 .976-.425.9.9 0 0 0 .117-.547.9.9 0 0 0-.231-.509M290.72 105.812 267.55 129.3c-.801.813.449 2.065 1.252 1.253l23.17-23.489c.801-.813-.451-2.065-1.252-1.252m17.267 33.42a.895.895 0 0 0 .541-1.469.9.9 0 0 0-.541-.304h-39.735a.9.9 0 0 0-.541 1.469c.139.162.331.27.541.304 18.142.316 30.578.157 39.735 0m-40.675 8.778a947 947 0 0 0 23.408 23.336.886.886 0 0 0 1.252-1.252 933 933 0 0 0-23.408-23.336.883.883 0 0 0-1.223.028.885.885 0 0 0-.029 1.224M47.2 279.585H12.302a.89.89 0 0 0-.776.558.89.89 0 0 0 .179.939.9.9 0 0 0 .597.274H47.2a.89.89 0 0 0 .775-.558.89.89 0 0 0-.179-.939.9.9 0 0 0-.596-.274m-.625 7.093-30.923 30.923a.884.884 0 0 0 .634 1.482.9.9 0 0 0 .618-.23c8.16-7.885 28.676-28.6 30.92-30.923a.886.886 0 0 0-1.25-1.252m6.22.918v31.762a.883.883 0 0 0 .887.841.885.885 0 0 0 .884-.841v-31.762a.88.88 0 0 0-.886-.842.884.884 0 0 0-.885.842"/><path fill="#fff" d="M53.764 141.458v83.007a.88.88 0 0 0 .884.841.88.88 0 0 0 .886-.841v-83.007a.887.887 0 1 0-1.773 0z"/><path fill="#aeffd3" d="M56.98 239.355c-.423-1.046-2.135-.588-1.708.469l30.84 76.561c.421 1.043 2.131.587 1.705-.472a100647 100647 0 0 0-30.838-76.558m94.054-198.292c-1.53-2.787-13.614-23.383-14.206-24.382a.9.9 0 0 0-1.528 0 6952 6952 0 0 0-14.206 24.382.897.897 0 0 0 .763 1.333h28.412a.917.917 0 0 0 .861-.895.9.9 0 0 0-.098-.438z"/><path fill="#333" d="M117.788 16.035A938 938 0 0 0 95.493 38.33a.889.889 0 0 0 1.252 1.252l22.295-22.304a.9.9 0 0 0 .231-.618.89.89 0 0 0-.866-.865.9.9 0 0 0-.617.23zm-30.274-.009a.897.897 0 0 0 0-1.252.9.9 0 0 0-1.252 0c-5.4 4.178-17.554 13.506-18.176 14.062-.922.976.584 1.795 1.216 2.273L86.26 44.233a.91.91 0 0 0 1.252 0 .885.885 0 0 0 0-1.252L70.098 29.502zm264.533 26.955a.894.894 0 0 0 0 1.252.9.9 0 0 0 1.252 0c5.399-4.178 17.552-13.505 18.175-14.064.923-.976-.583-1.784-1.216-2.273l-16.959-13.122a.906.906 0 0 0-1.252 0 .88.88 0 0 0 0 1.252l17.415 13.476z"/><path fill="#aeffd3" d="M324.448 17.11a11.38 11.38 0 0 0-15.189 11.83 11.38 11.38 0 0 0 6.245 9.05 11.38 11.38 0 0 0 10.986-.461 11.34 11.34 0 0 0 5.432-10.856 11.34 11.34 0 0 0-7.474-9.563"/><path fill="#333" d="M61.934 212.238a14.36 14.36 0 0 0 8.733 13.322c3.754 1.557 8.313 1.07 12.307 1.07h128.199a14.275 14.275 0 0 0 14.107-13.44c.097-1.894.016 1.891.016-58.588a20.4 20.4 0 0 0-1.16-8.385 14.28 14.28 0 0 0-13.098-8.527H76.608a14.185 14.185 0 0 0-14.674 13.897c0 .226.287-1.515 0 60.651m1.77-60.402a12.434 12.434 0 0 1 13.015-12.373H210.9a12.57 12.57 0 0 1 11.348 6.868 17.4 17.4 0 0 1 1.279 8.2s.042 52.194 0 57.967a12.45 12.45 0 0 1-3.642 8.706 12.46 12.46 0 0 1-8.7 3.656c-145.608.763-135.352.213-138.19-.384a12.52 12.52 0 0 1-9.278-12.238c-.023-6.59-.018-59.88-.014-60.402m39.657 108.369c.157.043 18.774-.139 27.911.029.725.014 1.239-.994.647-1.483-.184-.224.224.193-21.272-18.088a.91.91 0 0 0-.85-.22.89.89 0 0 0-.631.611c-1.75 5.315-6.44 18.06-6.44 18.06a.9.9 0 0 0 .093.676.9.9 0 0 0 .542.415m7.064-17.419 18.442 15.673h-24.034zm31.685 47.02a.93.93 0 0 0-.855-.65h-20.327a.895.895 0 0 0-.884.897c0 .224 1.506 4.014 5.724 14.854a.92.92 0 0 0 .855.651c21.766.317 20.522.09 20.868-.195a.696.696 0 0 0 .321-.927c-.101-.233-5.56-14.262-5.702-14.63m-14.879 13.982-5.006-12.86h18.436l5.006 12.86zm80.977-45.504c1.413-4.362-2.199-8.445-5.556-10.689-6.337-4.239-17.424-5.534-20.967.929a6.8 6.8 0 0 0 .07 5.688c4.2 9.648 23.239 13.032 26.453 4.072m-25.278-7.974a5.32 5.32 0 0 1 3.268-3.602c8.252-3.655 22.593 4.039 20.3 11.105-2.273 6.348-17.264 4.753-22.394-2.986a6.1 6.1 0 0 1-1.174-4.517m-33.788-138.999a.896.896 0 0 0-1.57.099c-.62.99-2.751 4.712-11.238 19.268a.91.91 0 0 0 .006.882.9.9 0 0 0 .757.451h22.565a.91.91 0 0 0 .813-.609.9.9 0 0 0 .051-.354c-.018-.338.691.983-11.384-19.737m-10.505 18.93 9.743-16.724 9.738 16.724z"/><path fill="#333" d="M128.291 200.285c28.677.211 37.049.202 39.578.052 1.095-.063 1.418-.099 1.501-1.163.161-2.051.182-9.763-.023-39.941a.897.897 0 0 0-.897-.884h-40.165a.9.9 0 0 0-.884.884v40.166a.9.9 0 0 0 .89.886m.898-40.165h38.388v38.395h-38.399zM78.22 188.944c18.438.135 17.78.16 18.155-.318.312-.33.35 1.102.224-18.057a.9.9 0 0 0-.884-.897H78.22a.9.9 0 0 0-.884.897v17.503a.9.9 0 0 0 .884.872m.886-17.502h15.718v15.721H79.106zm121.498-54.415a15.065 15.065 0 0 0-14.109 14.098.896.896 0 0 0 .886.897h28.257a.83.83 0 0 0 .656-.242.84.84 0 0 0 .242-.655 15.033 15.033 0 0 0-15.932-14.098m2.693 1.871a13.24 13.24 0 0 1 11.343 11.343h-26.253a13.3 13.3 0 0 1 1.679-4.89 13.26 13.26 0 0 1 8.071-6.139 13.2 13.2 0 0 1 5.16-.314m-6.552 66.723a11.2 11.2 0 0 0-6.862 2.796 7.973 7.973 0 0 0 1.026 11.893 13.2 13.2 0 0 0 7.124 1.977 46.6 46.6 0 0 1 7.073.401 8.48 8.48 0 0 1 5.353 2.893c2.289 3.621-.819 7.9-5.423 8.421a72 72 0 0 1-16.47.186c-1.122-.121-1.122 1.652 0 1.771a66.5 66.5 0 0 0 18.9-.685c4.459-1.528 7.228-6.716 4.421-10.728-4.295-5.336-11.377-3.285-17.018-4.42a6.205 6.205 0 0 1-5.352-5.235 6.2 6.2 0 0 1 3.586-6.572 15.8 15.8 0 0 1 7.21-1.095 21.1 21.1 0 0 0 9.424-1.006 8.16 8.16 0 0 0 4.631-5.161 6.69 6.69 0 0 0-2.8-6.756c-5.127-3.59-10.573-1.602-16.199-2.419a5.386 5.386 0 0 1-5.031-7.421 5.4 5.4 0 0 1 2.276-2.618 11.16 11.16 0 0 1 6.599-2.468 63.3 63.3 0 0 1 12.916.727c1.122.139 1.122-1.634 0-1.77q-4.501-.576-9.032-.826c-2.58-.146-5.17.112-7.671.761a9.96 9.96 0 0 0-5.592 4.189 9.3 9.3 0 0 0-.801 6.707c1.463 5.773 9.247 4.609 13.721 4.622a23 23 0 0 1 3.128.209c5.697.673 8.042 4.842 6.229 7.9-2.998 5.085-9.747 3.297-15.366 3.727M78.22 86.178h17.49a.92.92 0 0 0 .867-.96c-.02-.322.514.652-8.848-15.382a.898.898 0 0 0-1.528 0c-2.553 4.38-8.383 14.387-8.751 15.009a.898.898 0 0 0 .77 1.333m8.75-14.137 7.206 12.366H79.76zm40.437-16.155V96.05a.9.9 0 0 0 .884.897c28.347.191 36.858.198 39.513.034 1.279-.079 1.51-.135 1.588-1.301.153-2.244.189-10.244-.045-39.789a.894.894 0 0 0-.897-.884h-40.165a.897.897 0 0 0-.878.878m1.771.886h38.399v38.4h-38.399zm62.693 10.455v17.502a.9.9 0 0 0 .887.884c18.446.137 17.791.157 18.155-.316.316-.337.372 1.1.224-18.059a.9.9 0 0 0-.897-.886h-17.489a.895.895 0 0 0-.88.875m1.771.886h15.714V83.82h-15.708zm-13.246-28.878c18.445.135 17.79.157 18.153-.319.314-.33.35 1.102.224-18.056a.897.897 0 0 0-.897-.886h-17.48a.897.897 0 0 0-.884.895v17.48a.9.9 0 0 0 .884.886m.884-17.49h15.721v15.728H181.28zM71.953 131.125a.896.896 0 0 0 .886.897c30.218.153 28.374.052 28.661-.101a.73.73 0 0 0 .478-.785 15.034 15.034 0 0 0-30.023 0v-.011zm16.81-12.227a13.24 13.24 0 0 1 11.343 11.343H73.853a13.24 13.24 0 0 1 9.75-11.029 13.2 13.2 0 0 1 5.16-.314"/><path fill="#333" d="M426.149 243.387c-.196 0-.389.034-.586.043a23 23 0 0 0 5.053-4.712 10.98 10.98 0 0 0 1.876-10.097c-3.02-9.2-17.096-15.602-29.989-10.567a84.8 84.8 0 0 0-7.235-23.841c-2.977-6.117-8.107-12.153-15.549-11.668a10.36 10.36 0 0 0-7.351 3.465c-5.222-14.929-15.869-27.059-26.702-32.985-9.063-4.569-18.55-1.046-18.779 8.648a15.5 15.5 0 0 0-7.531 7.42 11.5 11.5 0 0 0-1.074 9.905 11.8 11.8 0 0 0 6.873 5.957c1.388.553 2.835.945 4.312 1.169l3.442 28.894a38.9 38.9 0 0 0-11.836 11.022c-9.2 12.882-9.873 29.52-9.848 44.815-6.211-15.232-16.416-27.151-32.236-31.863a44.62 44.62 0 0 0-45.7 11.975l-2.953-6.996c-3.564-9.11-10.95-13.127-20.11-12.644H74.737a8.66 8.66 0 0 0-8.123 12.116c30.068 71.804 27.073 65.099 28.863 68.277a18.99 18.99 0 0 0 15.932 8.526h83.862c-26.577 5.525-37.778 12.667-42.858 38.335-4.068 21.139-.07 51.117 18.433 62.253a36 36 0 0 0 18.777 4.685h156.022c13.208 0 20.702-7.122 23.099-20.012 3.339-17.951-3.689-30.315-12.007-34.509a81 81 0 0 0 24.682-4.975 37.1 37.1 0 0 0 13.443-8.569c9.965-10.472 8.527-28.048 7.156-42.508-.844-8.975-2.078-17.894-3.59-26.773a219.5 219.5 0 0 0-7.145-30.997 136.1 136.1 0 0 0 38.866-.608 9.18 9.18 0 0 0 7.003-4.192c3.184-6.449-6.496-9.027-11.003-8.989m-99.599-59.812a11.47 11.47 0 0 1-6.253-4.488 8.74 8.74 0 0 1 .078-8.078 14.92 14.92 0 0 1 6.631-7.463 22.6 22.6 0 0 0 13.849 10.535 12.06 12.06 0 0 1-4.593 8.785c-2.72 2.32-6.539 1.672-9.712.709m-70.399 56.173a44.58 44.58 0 0 1 42.266 13.481 60.5 60.5 0 0 1 9.852 15.312c7.322 15.999 9.566 29.224 11.633 46.174a.885.885 0 0 0 1.77 0c1.14-29.98.958-24.415.563-61.345-.067-6.258 0-12.655 3.193-18.236a21.54 21.54 0 0 1 13.127-10.31 21.55 21.55 0 0 1 16.553 2.147c10.546 6.409 13.712 18.815 14.08 31.082a301.8 301.8 0 0 1-6.209 62.155c-4.31 21.066-14.776 33.93-36.272 34.834a53.5 53.5 0 0 1-19.391-2.531c-15.615-5.385-24.135-19.679-31.863-34.522-8.673-16.647-20.246-41.992-23.592-47.287a.89.89 0 0 0-.99-.379.9.9 0 0 0-.662.828c-.181 3.574-1.027 14.39-1.121 16.232a29 29 0 0 1-.407 4.198c-.361 1.867-1.57 4.661-3.931 3.42-2.733-1.432-2.953-4.685-3.366-7.365l-1.837-12.02c-.164-1.073-1.634-.673-1.739.224-.552 4.641.415 12.189-1.656 16.538-1.508 2.773-5.857 1.671-6.97-.934-2.468-6.902 1.268-17.17-4.907-20.612a5.75 5.75 0 0 0-4.775-.525 4.97 4.97 0 0 0-2.917 4.277c-.247 1.757 0 3.994-1.369 5.349a4.7 4.7 0 0 1-4.326.943c-3.904-1.062-4.712-5.834-3.882-9.22a13.9 13.9 0 0 1 7.269-8.486 13.9 13.9 0 0 1 11.167-.402.9.9 0 0 0 1.211-.317 47.73 47.73 0 0 1 29.498-22.703m1.109 68.631-6.833-16.502c.397-2.34.599-4.71.608-7.084l.734-10.656c2.172 4.089 19.78 40.139 20.572 41.689-5.143-.224-10.297-.334-15.42-.424a8.47 8.47 0 0 0 .339-7.023m-31.919-33.883h-6.956c.032-.576.234-1.13.58-1.592.347-.462.823-.81 1.367-1.002a4.47 4.47 0 0 1 5.009 2.599zm-113.988 43.98a17.14 17.14 0 0 1-15.555-9.803c-.112-.236-27.772-66.419-27.846-66.643a6.964 6.964 0 0 1 3.9-8.424c1.959-.821-6.404-.525 138.578-.525a17.28 17.28 0 0 1 17.695 10.194c.113.258 3.131 7.405 3.815 9.047a48.7 48.7 0 0 0-6.444 8.615c-9.947-3.415-20.675 3.778-20.583 13.568h-42.706l-16.443-39.328a.91.91 0 0 0-1.09-.619.9.9 0 0 0-.619 1.09l16.245 38.857H87.065a.89.89 0 0 0-.777.557.89.89 0 0 0 .178.94.9.9 0 0 0 .599.274c1.346.022 73.985 0 73.985 0l16.757 40.109a.9.9 0 0 0 1.09.619.9.9 0 0 0 .62-1.09l-16.574-39.632h42.149c1.039 5.882 6.839 8.029 10.546 5.59a6.1 6.1 0 0 0 1.816-2.142c.432-.845.66-1.779.668-2.727.023-.225.061-.721.061-.721h7.804c.295 1.52.423 3.067.384 4.614-.054 3.366-.236 9.453 1.777 12.224a6.54 6.54 0 0 0 4.014 2.583 9.6 9.6 0 0 1-.884 4.322 4.73 4.73 0 0 1-2.969 2.621 3.29 3.29 0 0 1-3.235-2.063 11.6 11.6 0 0 1-.723-1.976c-.561-1.712-.96-2.215-1.683-4.241-.897-2.527-2.199-4.645-4.858-5.078-2.928-.276-4.936 2.421-5.412 5.255a19.2 19.2 0 0 0 .323 4.788 4.21 4.21 0 0 1-3.298 4.282c-.64.14-1.304.128-1.939-.034-4.454-1.138-3.754-9.592-8.302-12.79-4.811-3.307-11.428.292-10.995 5.61.312 1.88.767 3.733 1.36 5.544.26 1.093 1.918.649 1.71-.431-.023-.338-.584-1.505-1.275-4.875-.7-4.771 6.166-7.452 9.424-3.241a31.8 31.8 0 0 1 3.097 7.167 7.22 7.22 0 0 0 5.3 4.872 6.32 6.32 0 0 0 6.332-3.59 8.24 8.24 0 0 0 .065-4.683 6.85 6.85 0 0 1 .639-4.264 2.94 2.94 0 0 1 2.956-1.837 4.16 4.16 0 0 1 2.766 2.838c.55 1.45 1.445 3.281 2.02 4.937.345 1.44.994 2.789 1.903 3.958a4.48 4.48 0 0 0 4.198 1.57 6.02 6.02 0 0 0 3.637-2.632 10.04 10.04 0 0 0 1.629-5.975 5.3 5.3 0 0 0 2.341-.855c3.473-2.316 3.002-9.929 3.002-9.929a33.5 33.5 0 0 0 1.483 8.078 7.84 7.84 0 0 0 2.814 3.321 4.036 4.036 0 0 0 6-1.925v-.023l5.973 14.424a7.18 7.18 0 0 1-.617 6.532 294 294 0 0 0-49.881 3.094c-121.225 0-87.623.011-93.704 0zm282.715-43.827a323 323 0 0 1 6.956 50.772c.408 7.941.381 16.604-2.899 24.025-7.562 16.207-29.915 19.71-47.794 20.053a.9.9 0 0 0-.599.274.896.896 0 0 0 0 1.223.9.9 0 0 0 .599.274c8.14-.169 14.246 8.199 16.212 15.341a44.5 44.5 0 0 1 1.121 12.66 34.9 34.9 0 0 1-4.068 15.364 18.43 18.43 0 0 1-13.885 8.93c-3.332.26-6.673.204-10.016.186-29.016-.154-124.425.088-151.131-.166-8.661-.083-16.273-2.244-23.004-9.231a41.4 41.4 0 0 1-8.751-14.839 78.23 78.23 0 0 1 .976-53.213 31.95 31.95 0 0 1 19.266-19.01 83 83 0 0 1 12.906-4.057c29.709-6.747 53.418-6.731 83.337-5.524 11.191 21.783 22.408 37.894 46.814 39.043 10.221.658 21.119-.956 29.339-7.483a44.77 44.77 0 0 0 13.508-21.494c2.78-9.292 7.561-37.084 8.019-63.712.225-13.268-1.068-25.612-10.393-35.079a23.194 23.194 0 0 0-31.924-.673 24.8 24.8 0 0 0-7.817 15.222 68.4 68.4 0 0 0-.384 9.831c.366 34.129.583 29.866-.184 50.958a126.8 126.8 0 0 0-7.275-29.04c-.031-10.771-.173-21.766 2.469-32.312 3.307-13.239 12.341-26.547 26.423-29.679 15.077-3.355 28.212 8.369 36.104 19.889 8.473 12.357 12.963 26.942 16.075 41.467m41.808-23.884c-.712 2.854-3.932 3.671-6.44 4.142a137.2 137.2 0 0 1-38.756.427c-5.877-17.484-17.253-36.934-34.704-42.887a27.18 27.18 0 0 0-21.438 1.665c-.076-.59-2.306-19.161-3.305-27.86a9.15 9.15 0 0 0 5.029-1.212 14.12 14.12 0 0 0 6.379-11.589.9.9 0 0 0-.649-.855 21.3 21.3 0 0 1-7.646-3.518 21.3 21.3 0 0 1-5.687-6.205 9.2 9.2 0 0 1 3.46-8.392 12.44 12.44 0 0 1 12.53.011c10.878 5.857 21.719 18.378 26.61 33.687a.91.91 0 0 0 .742.619.9.9 0 0 0 .876-.408c3.141-5.327 10.337-5.039 14.639-1.631a22.76 22.76 0 0 1 6.119 8.136 88.1 88.1 0 0 1 7.322 24.618c.092.624.843.731 1.299.529 10.71-4.642 23.549-.81 28.048 7.854a9.15 9.15 0 0 1-.61 9.076 25.6 25.6 0 0 1-8.35 7.151.886.886 0 0 0-.311 1.08.895.895 0 0 0 .985.538c2.959-.793 6.08-.75 9.015.126 2.13.624 5.543 2.08 4.843 4.894z"/><path fill="#333" d="M346.471 369.358c-27.922-.063-87.457.256-114.807 4.957-1.122.193-.646 1.898.469 1.707a410 410 0 0 1 45.449-3.803c8.713-.355 68.378-1.091 68.887-1.091a.91.91 0 0 0 .859-.536.88.88 0 0 0-.087-.855.89.89 0 0 0-.772-.379zM165.75 353.233a40 40 0 0 0-.583 11.26c.103 1.122 1.876 1.136 1.77 0a38.3 38.3 0 0 1 .521-10.791c.215-1.113-1.492-1.588-1.708-.469m206.824 28.21a.76.76 0 0 0-.96-.179.717.717 0 0 0-.552.805 58.39 58.39 0 0 0 45.788 52.157.899.899 0 0 0 .859-1.481c-.206-.229-44.94-51.064-45.135-51.302m.595 3.353 41.379 47.031a56.43 56.43 0 0 1-41.379-47.031m-43.879-35.177a32 32 0 0 0 7.405-3.207.886.886 0 0 0-.898-1.528 32.4 32.4 0 0 1-6.978 3.027.89.89 0 0 0-.586 1.082.88.88 0 0 0 1.057.626M228.063 40.583a9.3 9.3 0 0 0 6.706.798c5.774-1.463 4.609-9.244 4.625-13.719a12.97 12.97 0 0 1 1.728-7.451 4.73 4.73 0 0 1 6.379-1.908c5.078 3.01 3.285 9.759 3.718 15.375a11.2 11.2 0 0 0 2.796 6.864 7.96 7.96 0 0 0 9.377 1.185 7.9 7.9 0 0 0 2.516-2.21 13.2 13.2 0 0 0 1.976-7.127 46 46 0 0 1 .402-7.073 8.47 8.47 0 0 1 2.895-5.353c3.623-2.29 7.9.825 8.419 5.423a72 72 0 0 1 .186 16.472c-.121 1.122 1.651 1.122 1.772 0a66.6 66.6 0 0 0-.684-18.902c-1.528-4.447-6.709-7.23-10.73-4.42-5.334 4.297-3.29 11.38-4.418 17.017a6.206 6.206 0 0 1-11.807 1.766 15.8 15.8 0 0 1-1.098-7.207c.384-3.177.041-6.4-1.003-9.424a8.19 8.19 0 0 0-5.161-4.632 6.69 6.69 0 0 0-6.756 2.803c-3.59 5.125-1.602 10.573-2.419 16.198a6.57 6.57 0 0 1-1.279 3.53 6.54 6.54 0 0 1-8.751-.774 11.15 11.15 0 0 1-2.468-6.6 64 64 0 0 1 .727-12.915c.139-1.122-1.634-1.122-1.77 0a124 124 0 0 0-.824 9.029c-.148 2.58.108 5.17.758 7.672a9.96 9.96 0 0 0 4.188 5.583m40.741 89.97 23.168-23.489c.801-.813-.448-2.065-1.252-1.252L267.55 129.3a.9.9 0 0 0-.166.597.895.895 0 0 0 1.42.656m-1.407 7.824a.9.9 0 0 0 .855.855h39.735a.895.895 0 0 0 .541-1.469.9.9 0 0 0-.541-.304h-39.735a.895.895 0 0 0-.855.918m1.17 8.372a.9.9 0 0 0-1.422.654.9.9 0 0 0 .167.598 963 963 0 0 0 23.408 23.336.9.9 0 0 0 .904.089.897.897 0 0 0 .348-1.343 931 931 0 0 0-23.405-23.334M48.055 280.447a.89.89 0 0 0-.855-.855H12.302a.89.89 0 0 0-.776.558.89.89 0 0 0 .179.939.9.9 0 0 0 .597.273H47.2a.893.893 0 0 0 .854-.915m-1.479 6.231-30.923 30.923a.886.886 0 0 0 1.252 1.252c8.163-7.883 28.676-28.6 30.92-30.923a.885.885 0 0 0-1.25-1.252m7.076.063a.9.9 0 0 0-.858.855v31.762a.89.89 0 0 0 .887.756.896.896 0 0 0 .886-.756v-31.762a.893.893 0 0 0-.916-.855m187.327-17.269a6.57 6.57 0 0 1 1.795-4.198c.783-.828-.467-2.082-1.252-1.252a8.48 8.48 0 0 0-2.325 5.45c-.049 1.138 1.724 1.138 1.782 0m-9.902-4.696a5.48 5.48 0 0 1 2.832-2.762c1.041-.427.585-2.141-.469-1.708a7.28 7.28 0 0 0-3.887 3.572c-.498 1.028 1.028 1.928 1.524.898M55.539 224.463v-83.005a.887.887 0 1 0-1.773 0v83.005a.883.883 0 0 0 .886.841.884.884 0 0 0 .884-.841zm1.441 14.892c-.42-1.045-2.132-.59-1.706.469l30.835 76.561c.422 1.043 2.134.588 1.708-.471-42.196-104.798-27.667-68.831-30.84-76.559zm64.99-196.977c1.347.047 6.57.013 28.298.013a.92.92 0 0 0 .746-.457.91.91 0 0 0 .019-.876l-14.206-24.382a.88.88 0 0 0-.82-.424.89.89 0 0 0-.751.537c-.713 1.135-3.327 5.672-14.156 24.27a.89.89 0 0 0 .026.93.88.88 0 0 0 .844.389m14.092-23.494 12.664 21.73H123.4zM96.745 39.582l22.295-22.304a.9.9 0 0 0 .231-.617.89.89 0 0 0-.866-.866.9.9 0 0 0-.617.23L95.493 38.324a.89.89 0 0 0 .065 1.311.88.88 0 0 0 1.187-.061zm-42.31 2.652a.9.9 0 0 0 .855-.855V17.828a.886.886 0 0 0-1.77 0v23.56a.884.884 0 0 0 .915.846m14.87-11.125 16.957 13.124a.91.91 0 0 0 1.252 0 .884.884 0 0 0 0-1.252L70.097 29.502c1.057-.816 16.38-12.682 17.417-13.476a.897.897 0 0 0 0-1.252.897.897 0 0 0-1.252 0c-5.4 4.178-17.554 13.506-18.176 14.062-.92.976.58 1.784 1.219 2.273m300.157-1.607-17.415 13.48a.88.88 0 0 0 .626 1.505c.234 0 .459-.09.626-.254 0 0 17.552-13.505 18.176-14.064.924-.976-.582-1.784-1.214-2.273l-16.962-13.122a.906.906 0 0 0-1.252 0 .88.88 0 0 0 0 1.252zm-46.628 9.458a11.49 11.49 0 0 0 9.126-11.152 11.35 11.35 0 0 0-4.499-9.072 11.366 11.366 0 0 0-14.5.617 11.38 11.38 0 0 0-2.093 14.363 11.5 11.5 0 0 0 11.966 5.244m-10.485-16.073a9.61 9.61 0 0 1 15.959-.794 9.61 9.61 0 0 1 .531 10.663 9.609 9.609 0 1 1-16.49-9.869"/></svg>